<svg xmlns="http://www.w3.org/2000/svg" viewBox="0 0 500 500"><g id="freepik--background-complete--inject-29"><rect x="46.11" y="281.36" width="26.48" height="11.19" style="fill:#ebebeb"></rect><rect x="31.34" y="295.47" width="26.48" height="11.19" style="fill:#ebebeb"></rect><rect x="344.05" y="162.05" width="26.48" height="11.19" style="fill:#ebebeb"></rect><rect x="329.28" y="176.16" width="26.48" height="11.19" style="fill:#ebebeb"></rect><rect x="314.57" y="162.05" width="26.48" height="11.19" style="fill:#ebebeb"></rect><rect x="442.18" y="295.47" width="26.48" height="11.19" style="fill:#ebebeb"></rect><rect x="427.41" y="42.3" width="26.48" height="11.19" style="fill:#ebebeb"></rect><rect x="442.18" y="56.41" width="26.48" height="11.19" style="fill:#ebebeb"></rect><rect x="46.11" y="42.3" width="26.48" height="11.19" style="fill:#ebebeb"></rect><circle cx="377.04" cy="77.35" r="35.05" style="fill:#ebebeb"></circle><circle cx="378.65" cy="78.13" r="33.45" transform="translate(255.2 444.52) rotate(-83.04)" style="fill:#dbdbdb"></circle><circle cx="378.65" cy="78.13" r="31.34" transform="translate(262.83 447) rotate(-84.23)" style="fill:#fff"></circle><path d="M409.27,71.48c-14.27,8.65-37.72,22.83-50.83,30.61a31.32,31.32,0,0,1-8.56-11.52l43.35-40.18A31.39,31.39,0,0,1,409.27,71.48Z" style="fill:#ebebeb;opacity:0.5"></path><path d="M410,79.23a31,31,0,0,1-2.07,10.18L368.8,107.89a31.7,31.7,0,0,1-4.93-2.12C375.67,99,397.25,86.54,410,79.23Z" style="fill:#ebebeb;opacity:0.5"></path><rect x="378.34" y="49.07" width="0.61" height="4.75" style="fill:#c7c7c7"></rect><rect x="365" y="52.64" width="0.61" height="4.75" transform="translate(21.43 190.01) rotate(-30)" style="fill:#c7c7c7"></rect><rect x="355.23" y="62.41" width="0.61" height="4.75" transform="translate(121.64 340.28) rotate(-60)" style="fill:#c7c7c7"></rect><rect x="349.58" y="77.83" width="4.75" height="0.61" style="fill:#c7c7c7"></rect><rect x="353.16" y="91.17" width="4.75" height="0.61" transform="translate(1.89 190.02) rotate(-30)" style="fill:#c7c7c7"></rect><rect x="362.93" y="100.94" width="4.75" height="0.61" transform="translate(95.15 367.16) rotate(-60.04)" style="fill:#c7c7c7"></rect><rect x="378.34" y="102.44" width="0.61" height="4.75" style="fill:#c7c7c7"></rect><rect x="391.69" y="98.87" width="0.61" height="4.75" transform="translate(1.89 209.56) rotate(-30)" style="fill:#c7c7c7"></rect><rect x="401.45" y="89.1" width="0.61" height="4.75" transform="matrix(0.5, -0.87, 0.87, 0.5, 121.64, 393.65)" style="fill:#c7c7c7"></rect><rect x="402.96" y="77.83" width="4.75" height="0.61" style="fill:#c7c7c7"></rect><rect x="399.38" y="64.49" width="4.75" height="0.61" transform="translate(21.43 209.56) rotate(-30)" style="fill:#c7c7c7"></rect><rect x="389.61" y="54.72" width="4.75" height="0.61" transform="translate(148.51 367.11) rotate(-60.03)" style="fill:#c7c7c7"></rect><polygon points="379.1 51.22 380.13 80.25 377.16 80.21 378.29 51.21 379.1 51.22" style="fill:#c7c7c7"></polygon><polygon points="397.18 68.01 377.65 80.47 376.23 77.86 396.8 67.3 397.18 68.01" style="fill:#a6a6a6"></polygon><path d="M379.66,78.13a1,1,0,1,1-1-1A1,1,0,0,1,379.66,78.13Z" style="fill:#c7c7c7"></path></g><g id="freepik--Shadow--inject-29"><ellipse cx="250" cy="449.32" rx="202.98" ry="20.01" style="fill:#ebebeb"></ellipse></g><g id="freepik--Floor--inject-29"><polygon points="30.64 358.76 85.48 358.51 140.32 358.43 250 358.26 359.68 358.43 414.52 358.51 469.35 358.76 414.52 359 359.68 359.09 250 359.26 140.32 359.09 85.48 359 30.64 358.76" style="fill:#263238"></polygon></g><g id="freepik--Plant--inject-29"><path d="M78.59,303.59a230,230,0,0,0-.34-24.49,311.62,311.62,0,0,0-7.67-49.9c-2.14-9.24-4.77-18.31-7.52-27.38-.08-.28-.52-.2-.44.09,8.49,32,15.45,65,15,98.18-.13,9.3-1.21,18.44-2.09,27.68,0,.25.38.35.44.09A139.2,139.2,0,0,0,78.59,303.59Z" style="fill:#F0B400"></path><path d="M62.62,201.91s-12.86,32.64-10,40.31,8.81,9.31,8.81,9.31-7.87,11.24-2.37,21.77,17.72,10,18.53,22C77.61,295.29,78.29,245.34,62.62,201.91Z" style="fill:#F0B400"></path><path d="M76.21,274.66a.2.2,0,0,0,0-.17,299.38,299.38,0,0,0-12.47-65.67c0-.06-.13,0-.11,0q3.83,14.31,6.75,28.8a14.13,14.13,0,0,0-6.14-3.42s-.06,0,0,.06a16.23,16.23,0,0,1,6.34,4.24c.37,1.89.74,3.78,1.09,5.68-2.87-3.22-6.86-4.81-10.85-6.32,0,0-.08.06,0,.08,4.16,1.69,8.29,3.87,11.11,7.45q1.47,8.13,2.58,16.31a15.54,15.54,0,0,0-7.67-4.4c-.09,0-.14.12,0,.14a16.18,16.18,0,0,1,7.78,5l0,0q.39,2.88.73,5.76A19.78,19.78,0,0,0,69.91,265s-.08.06,0,.08a18.65,18.65,0,0,1,5.39,3.56s0,0,.06,0q.33,2.74.62,5.49A26.25,26.25,0,0,0,65,266.38a.07.07,0,0,0-.05.13,28.46,28.46,0,0,1,10.75,8.28.25.25,0,0,0,.27.08q.42,4.22.74,8.44a0,0,0,1,0,.06,0Q76.57,279,76.21,274.66Z" style="fill:#263238"></path><path d="M65.88,231a16.11,16.11,0,0,0-7.73-2.41.05.05,0,0,0,0,.1,30.4,30.4,0,0,1,7.64,2.5A.11.11,0,0,0,65.88,231Z" style="fill:#263238"></path><path d="M67.44,265.54a16.11,16.11,0,0,0-5.8-2c-.07,0-.08.1,0,.11a21.64,21.64,0,0,1,5.74,2C67.45,265.72,67.52,265.59,67.44,265.54Z" style="fill:#263238"></path><path d="M112.4,242.76a87.4,87.4,0,0,0-14.88,13,53.38,53.38,0,0,0-10.45,17.7,132.43,132.43,0,0,0-7.77,42.35,102.41,102.41,0,0,0,2.29,23.81.23.23,0,0,0,.45-.08,133.32,133.32,0,0,1,.23-41.63c2.21-13.5,5.68-28.2,14.26-39.17,4.68-6,10.51-10.68,16.27-15.54C113.1,243,112.71,242.54,112.4,242.76Z" style="fill:#F0B400"></path><path d="M81.19,306.09A80.16,80.16,0,0,1,92,292.22c6.44-6.43,11.85-11,12.69-15.26s-6.44-7.38-6.44-7.38,8.9,1.6,11.34-2.14,3.61-25.38,3.61-25.38S97,253.63,89.49,269.84,81.19,306.09,81.19,306.09Z" style="fill:#F0B400"></path><path d="M107.63,247.61C100.82,254.3,94,261.44,90,270.23a85.15,85.15,0,0,0-3.58,9.33h0c-.2.64-.41,1.28-.61,1.92a.23.23,0,0,0,0,.11,181.44,181.44,0,0,0-4.6,20c0,.05,0,.07.06,0,.7-3.37,1.47-6.78,2.33-10.18l.1,0a14.22,14.22,0,0,1,4.25-1.08c.09,0,.09-.18,0-.17a15.73,15.73,0,0,0-4.2.77c.78-3.07,1.63-6.13,2.59-9.14a45.13,45.13,0,0,1,9.61-1.26s0,0,0,0a36.43,36.43,0,0,0-9.44.8c.16-.51.34-1,.51-1.54a47.63,47.63,0,0,1,6.39-1.08s0-.07,0-.07a30.62,30.62,0,0,0-6.26.76c.88-2.61,1.83-5.18,2.89-7.69A45.48,45.48,0,0,1,93,265.73a38,38,0,0,1,5.18-.93,0,0,0,0,0,0-.08,13.94,13.94,0,0,0-4.85.47c.85-1.37,1.75-2.72,2.71-4h0c3.63-.81,7.31-1.56,11-.86.06,0,.08-.09,0-.11-3.54-.93-7-.39-10.57.3.39-.51.78-1,1.18-1.51a24,24,0,0,1,6.78-1.07,0,0,0,0,0,0-.08,17.79,17.79,0,0,0-6.33.57c3-3.74,6.32-7.24,9.6-10.71C107.91,247.54,107.79,247.45,107.63,247.61Z" style="fill:#263238"></path><path d="M107.45,262.36a15.07,15.07,0,0,0-3.22-.11c-.13,0-.12.23,0,.23,1.07,0,2.13-.05,3.2,0A.07.07,0,0,0,107.45,262.36Z" style="fill:#263238"></path><path d="M95.79,283.36a14.27,14.27,0,0,0-5,1s0,.08,0,.07c1.64-.39,3.31-.55,5-.83A.12.12,0,0,0,95.79,283.36Z" style="fill:#263238"></path><path d="M92.3,276.1a11.61,11.61,0,0,0-2.12.19c-.07,0-.07.13,0,.13a10.73,10.73,0,0,0,2.12-.1A.11.11,0,0,0,92.3,276.1Z" style="fill:#263238"></path><path d="M33.71,265.72a74.43,74.43,0,0,1,15,7.09A45.06,45.06,0,0,1,61.3,284.73,111.31,111.31,0,0,1,77.38,317.2,86.08,86.08,0,0,1,81,337a.19.19,0,0,1-.38,0,112.31,112.31,0,0,0-9.81-33.63C65.93,293,59.73,281.9,50.25,275c-5.17-3.76-11-6.22-16.76-8.82C33.19,266.05,33.41,265.62,33.71,265.72Z" style="fill:#F0B400"></path><path d="M73.61,309.77a67.64,67.64,0,0,0-12-8.72c-6.7-3.72-12.14-6.17-13.8-9.42s3.51-7.46,3.51-7.46-6.84,3.35-9.67.89-8.79-19.71-8.79-19.71,15.78,5.62,25.64,17S73.61,309.77,73.61,309.77Z" style="fill:#F0B400"></path><path d="M72.78,306.21C64.89,291.39,54.36,278,39.93,269.15c0,0,0,0,0,0a72.43,72.43,0,0,1,10.56,8.26A16.8,16.8,0,0,0,42,279.21a0,0,0,0,0,0,.09,23,23,0,0,1,8.73-1.47.18.18,0,0,0,.1,0c.51.48,1,1,1.52,1.48a26.63,26.63,0,0,0-4.54.6s0,.07,0,.06a22.62,22.62,0,0,1,4.79-.39A99.87,99.87,0,0,1,60.1,288a7.38,7.38,0,0,0-3.17.23.06.06,0,1,0,0,.12,16.7,16.7,0,0,1,3.39,0l1.29,1.65a30.62,30.62,0,0,0-9.58.94s0,.08,0,.07a38.71,38.71,0,0,1,9.84-.64c.4.53.79,1.08,1.18,1.62a20.72,20.72,0,0,0-5.7.66c-.07,0-.05.13,0,.11a22.06,22.06,0,0,1,5.9-.46q2.55,3.51,4.89,7.15a5.29,5.29,0,0,0-2.5.15s0,.08,0,.07a10.68,10.68,0,0,1,2.71.13q2.1,3.28,4.07,6.62C72.59,306.55,72.89,306.41,72.78,306.21Z" style="fill:#263238"></path><path d="M60.51,293.92a12.28,12.28,0,0,0-4.59.56s0,.08,0,.07a36.9,36.9,0,0,1,4.56-.47C60.59,294.08,60.61,293.93,60.51,293.92Z" style="fill:#263238"></path><path d="M46.74,275.87a7.84,7.84,0,0,0-2.11.12c-.09,0-.06.13,0,.12.69-.07,1.38,0,2.08-.06C46.84,276,46.86,275.88,46.74,275.87Z" style="fill:#263238"></path><polygon points="63.7 312.01 88.6 312.01 85.14 358.76 67.16 358.76 63.7 312.01" style="fill:#455a64"></polygon><polygon points="88.6 312.01 87.8 322.81 64.5 322.81 63.7 312.01 88.6 312.01" style="fill:#263238"></polygon><rect x="61.44" y="308.7" width="29.41" height="8.08" style="fill:#455a64"></rect></g><g id="freepik--Board--inject-29"><polygon points="94.72 385.11 89.02 385.11 115 224.83 129.22 224.83 94.72 385.11" style="fill:#455a64"></polygon><polygon points="129.22 224.84 124.12 248.53 111.15 248.53 114.99 224.85 115 224.84 129.22 224.84" style="fill:#263238"></polygon><polygon points="295.72 385.11 301.42 385.11 255.91 224.83 241.69 224.83 295.72 385.11" style="fill:#455a64"></polygon><polygon points="262.64 248.53 249.68 248.53 241.69 224.84 255.91 224.84 255.92 224.85 262.64 248.53" style="fill:#263238"></polygon><polygon points="278.28 319.58 105.28 319.58 105 316.45 278.01 316.45 278.28 319.58" style="fill:#455a64"></polygon><polygon points="300.19 234.75 74.08 234.75 59.49 67.91 285.6 67.91 300.19 234.75" style="fill:#dbdbdb"></polygon><polygon points="304.14 234.75 78.03 234.75 63.43 67.91 289.54 67.91 304.14 234.75" style="fill:#ebebeb"></polygon><polygon points="298.32 73.63 55.65 73.63 54.57 61.27 297.24 61.27 298.32 73.63" style="fill:#455a64"></polygon><polygon points="104.9 121.67 104.42 122.15 102.86 123.7 102.43 124.15 102.4 123.82 102.84 123.38 104.07 122.15 104.54 121.67 104.9 121.67" style="fill:#dbdbdb"></polygon><polygon points="107.45 121.67 106.98 122.15 103.07 126.06 102.64 126.5 102.61 126.18 103.04 125.74 106.63 122.15 107.1 121.67 107.45 121.67" style="fill:#dbdbdb"></polygon><polygon points="110.02 121.67 109.54 122.15 103.28 128.43 102.84 128.86 102.81 128.54 103.25 128.1 109.19 122.15 109.67 121.67 110.02 121.67" style="fill:#dbdbdb"></polygon><polygon points="112.58 121.67 112.11 122.15 103.48 130.79 103.05 131.23 103.02 130.9 103.46 130.47 111.76 122.15 112.23 121.67 112.58 121.67" style="fill:#dbdbdb"></polygon><polygon points="115.14 121.67 114.67 122.15 103.69 133.15 103.25 133.59 103.23 133.26 103.66 132.82 114.32 122.15 114.79 121.67 115.14 121.67" style="fill:#dbdbdb"></polygon><polygon points="117.7 121.67 117.23 122.15 103.9 135.5 103.46 135.94 103.43 135.62 103.87 135.18 116.88 122.15 117.35 121.67 117.7 121.67" style="fill:#dbdbdb"></polygon><polygon points="120.26 121.67 119.79 122.15 105.11 136.86 104.64 137.33 104.28 137.33 104.75 136.86 119.44 122.15 119.91 121.67 120.26 121.67" style="fill:#dbdbdb"></polygon><polygon points="122.83 121.67 122.36 122.15 107.68 136.86 107.21 137.33 106.85 137.33 107.32 136.86 122.01 122.15 122.48 121.67 122.83 121.67" style="fill:#dbdbdb"></polygon><polygon points="125.4 121.67 124.92 122.15 110.24 136.86 109.77 137.33 109.41 137.33 109.88 136.86 124.57 122.15 125.05 121.67 125.4 121.67" style="fill:#dbdbdb"></polygon><polygon points="127.96 121.67 127.49 122.15 112.8 136.86 112.33 137.33 111.97 137.33 112.44 136.86 127.14 122.15 127.61 121.67 127.96 121.67" style="fill:#dbdbdb"></polygon><polygon points="130.52 121.67 130.05 122.15 115.36 136.86 114.89 137.33 114.54 137.33 115.01 136.86 129.7 122.15 130.18 121.67 130.52 121.67" style="fill:#dbdbdb"></polygon><polygon points="133.09 121.67 132.62 122.15 117.93 136.86 117.46 137.33 117.1 137.33 117.57 136.86 132.27 122.15 132.74 121.67 133.09 121.67" style="fill:#dbdbdb"></polygon><polygon points="135.65 121.67 135.18 122.15 120.49 136.86 120.02 137.33 119.66 137.33 120.13 136.86 134.83 122.15 135.3 121.67 135.65 121.67" style="fill:#dbdbdb"></polygon><polygon points="138.21 121.67 137.74 122.15 123.05 136.86 122.58 137.33 122.22 137.33 122.69 136.86 137.39 122.15 137.86 121.67 138.21 121.67" style="fill:#dbdbdb"></polygon><polygon points="140.77 121.67 140.3 122.15 125.61 136.86 125.14 137.33 124.78 137.33 125.25 136.86 139.95 122.15 140.42 121.67 140.77 121.67" style="fill:#dbdbdb"></polygon><polygon points="143.34 121.67 142.87 122.15 128.19 136.86 127.72 137.33 127.35 137.33 127.83 136.86 142.52 122.15 142.99 121.67 143.34 121.67" style="fill:#dbdbdb"></polygon><polygon points="145.9 121.67 145.43 122.15 130.75 136.86 130.28 137.33 129.91 137.33 130.39 136.86 145.08 122.15 145.55 121.67 145.9 121.67" style="fill:#dbdbdb"></polygon><polygon points="148.47 121.67 148 122.15 133.31 136.86 132.84 137.33 132.48 137.33 132.95 136.86 147.64 122.15 148.11 121.67 148.47 121.67" style="fill:#dbdbdb"></polygon><polygon points="151.04 121.67 150.56 122.15 135.87 136.86 135.4 137.33 135.04 137.33 135.51 136.86 150.21 122.15 150.68 121.67 151.04 121.67" style="fill:#dbdbdb"></polygon><polygon points="153.6 121.67 153.13 122.15 138.44 136.86 137.97 137.33 137.61 137.33 138.08 136.86 152.78 122.15 153.25 121.67 153.6 121.67" style="fill:#dbdbdb"></polygon><polygon points="154.98 122.51 155.01 122.83 154.57 123.27 141 136.86 140.53 137.33 140.17 137.33 140.64 136.86 154.54 122.94 154.98 122.51" style="fill:#dbdbdb"></polygon><polygon points="155.19 124.86 155.21 125.19 154.78 125.63 143.56 136.86 143.09 137.33 142.73 137.33 143.2 136.86 154.75 125.3 155.19 124.86" style="fill:#dbdbdb"></polygon><polygon points="155.39 127.22 155.42 127.55 154.98 127.99 146.12 136.86 145.65 137.33 145.29 137.33 145.76 136.86 154.96 127.66 155.39 127.22" style="fill:#dbdbdb"></polygon><polygon points="155.6 129.59 155.63 129.92 155.19 130.35 148.69 136.86 148.22 137.33 147.86 137.33 148.33 136.86 155.16 130.02 155.6 129.59" style="fill:#dbdbdb"></polygon><polygon points="155.81 131.95 155.83 132.28 155.4 132.72 151.25 136.86 150.78 137.33 150.42 137.33 150.89 136.86 155.37 132.38 155.81 131.95" style="fill:#dbdbdb"></polygon><polygon points="156.01 134.31 156.04 134.63 155.6 135.07 153.82 136.86 153.34 137.33 152.99 137.33 153.46 136.86 155.57 134.75 156.01 134.31" style="fill:#dbdbdb"></polygon><polygon points="256.97 100.3 257 100.63 256.03 99.8 256.38 99.8 256.97 100.3" style="fill:#dbdbdb"></polygon><polygon points="257.18 102.67 257.21 102.99 256.69 102.55 254.02 100.27 253.47 99.8 253.81 99.8 254.37 100.27 256.67 102.24 257.18 102.67" style="fill:#dbdbdb"></polygon><polygon points="257.38 105.03 257.41 105.35 256.9 104.91 251.45 100.27 250.89 99.8 251.25 99.8 251.81 100.27 256.87 104.59 257.38 105.03" style="fill:#dbdbdb"></polygon><polygon points="257.59 107.39 257.62 107.71 257.11 107.27 248.89 100.27 248.33 99.8 248.68 99.8 249.25 100.27 257.08 106.95 257.59 107.39" style="fill:#dbdbdb"></polygon><polygon points="257.8 109.74 257.83 110.07 257.31 109.63 246.33 100.27 245.77 99.8 246.12 99.8 246.68 100.27 257.28 109.3 257.8 109.74" style="fill:#dbdbdb"></polygon><polygon points="258 112.1 258.03 112.42 257.52 111.99 243.76 100.27 243.21 99.8 243.56 99.8 244.12 100.27 257.49 111.67 258 112.1" style="fill:#dbdbdb"></polygon><polygon points="258.21 114.47 258.24 114.79 257.73 114.35 241.2 100.27 240.65 99.8 240.99 99.8 241.54 100.27 257.7 114.03 258.21 114.47" style="fill:#dbdbdb"></polygon><polygon points="258.42 116.83 258.44 117.15 257.93 116.71 238.63 100.27 238.08 99.8 238.43 99.8 238.99 100.27 257.9 116.39 258.42 116.83" style="fill:#dbdbdb"></polygon><polygon points="258.62 119.19 258.65 119.51 258.14 119.07 237.71 101.67 237.2 101.23 237.17 100.91 237.68 101.35 258.11 118.75 258.62 119.19" style="fill:#dbdbdb"></polygon><polygon points="258.83 121.54 258.86 121.87 258.35 121.44 237.92 104.03 237.41 103.59 237.38 103.27 237.89 103.71 258.32 121.1 258.83 121.54" style="fill:#dbdbdb"></polygon><polygon points="259.04 123.9 259.06 124.22 258.55 123.79 238.12 106.38 237.61 105.95 237.58 105.63 238.1 106.07 258.52 123.47 259.04 123.9" style="fill:#dbdbdb"></polygon><polygon points="259.24 126.27 259.27 126.59 258.76 126.15 238.33 108.75 237.82 108.31 237.79 108 238.3 108.43 258.73 125.83 259.24 126.27" style="fill:#dbdbdb"></polygon><polygon points="259.45 128.63 259.48 128.95 258.96 128.51 238.54 111.11 238.02 110.67 238 110.35 238.51 110.78 258.94 128.19 259.45 128.63" style="fill:#dbdbdb"></polygon><polygon points="259.66 130.99 259.68 131.31 259.17 130.88 238.74 113.47 238.23 113.03 238.2 112.71 238.72 113.15 259.14 130.55 259.66 130.99" style="fill:#dbdbdb"></polygon><polygon points="259.86 133.34 259.89 133.67 259.38 133.24 238.95 115.83 238.44 115.39 238.41 115.07 238.92 115.51 259.35 132.91 259.86 133.34" style="fill:#dbdbdb"></polygon><polygon points="260.07 135.7 260.1 136.03 259.58 135.6 239.16 118.19 238.64 117.76 238.62 117.43 239.13 117.87 259.56 135.27 260.07 135.7" style="fill:#dbdbdb"></polygon><polygon points="260.27 138.06 260.3 138.39 259.79 137.95 239.36 120.55 238.85 120.11 238.82 119.8 239.34 120.23 259.76 137.63 260.27 138.06" style="fill:#dbdbdb"></polygon><polygon points="260.48 140.43 260.51 140.75 260 140.31 239.57 122.91 239.06 122.47 239.03 122.15 239.54 122.58 259.97 139.99 260.48 140.43" style="fill:#dbdbdb"></polygon><polygon points="260.69 142.79 260.72 143.11 260.2 142.68 239.78 125.27 239.26 124.83 239.24 124.51 239.75 124.95 260.18 142.35 260.69 142.79" style="fill:#dbdbdb"></polygon><polygon points="260.89 145.14 260.92 145.47 260.41 145.04 239.98 127.63 239.47 127.19 239.44 126.87 239.95 127.31 260.38 144.71 260.89 145.14" style="fill:#dbdbdb"></polygon><polygon points="261.1 147.5 261.13 147.84 260.62 147.4 240.19 129.99 239.68 129.56 239.65 129.23 240.16 129.67 260.59 147.07 261.1 147.5" style="fill:#dbdbdb"></polygon><polygon points="261.31 149.87 261.33 150.19 260.82 149.75 240.4 132.34 239.88 131.91 239.85 131.6 240.37 132.03 260.8 149.43 261.31 149.87" style="fill:#dbdbdb"></polygon><polygon points="261.51 152.23 261.54 152.55 261.03 152.11 240.6 134.71 240.09 134.27 240.06 133.96 240.57 134.39 261 151.79 261.51 152.23" style="fill:#dbdbdb"></polygon><polygon points="261.72 154.59 261.75 154.91 261.24 154.47 240.81 137.07 240.3 136.63 240.27 136.31 240.78 136.75 261.21 154.15 261.72 154.59" style="fill:#dbdbdb"></polygon><polygon points="261.93 156.94 261.95 157.27 261.44 156.84 241.01 139.43 240.5 138.99 240.47 138.67 240.99 139.11 261.41 156.5 261.93 156.94" style="fill:#dbdbdb"></polygon><polygon points="261.6 158.86 261.26 158.86 260.7 158.38 241.22 141.79 240.71 141.36 240.68 141.03 241.19 141.47 261.05 158.38 261.6 158.86" style="fill:#dbdbdb"></polygon><polygon points="259.04 158.86 258.69 158.86 258.13 158.38 241.43 144.15 240.91 143.71 240.89 143.4 241.4 143.83 258.49 158.38 259.04 158.86" style="fill:#dbdbdb"></polygon><polygon points="256.47 158.86 256.13 158.86 255.57 158.38 241.63 146.51 241.12 146.07 241.09 145.76 241.61 146.19 255.91 158.38 256.47 158.86" style="fill:#dbdbdb"></polygon><polygon points="253.92 158.86 253.56 158.86 253 158.38 241.84 148.87 241.33 148.43 241.3 148.11 241.81 148.55 253.35 158.38 253.92 158.86" style="fill:#dbdbdb"></polygon><polygon points="251.36 158.86 251 158.86 250.44 158.38 242.05 151.23 241.53 150.79 241.51 150.46 242.02 150.91 250.8 158.38 251.36 158.86" style="fill:#dbdbdb"></polygon><polygon points="248.78 158.86 248.43 158.86 247.88 158.38 242.25 153.59 241.74 153.16 241.71 152.83 242.23 153.27 248.23 158.38 248.78 158.86" style="fill:#dbdbdb"></polygon><polygon points="246.22 158.86 245.87 158.86 245.32 158.38 242.46 155.94 241.95 155.51 241.92 155.19 242.43 155.63 245.67 158.38 246.22 158.86" style="fill:#dbdbdb"></polygon><polygon points="243.65 158.86 243.31 158.86 242.76 158.38 242.67 158.31 242.15 157.87 242.13 157.56 242.64 157.99 243.1 158.38 243.65 158.86" style="fill:#dbdbdb"></polygon><polygon points="246.95 207.23 235.83 207.23 235.79 206.76 246.43 206.76 242.2 158.38 261.58 158.38 256.5 100.28 153.04 100.28 154.95 122.15 102.73 122.15 108.3 185.83 160.52 185.83 162.35 206.76 224.84 206.76 224.88 207.23 161.92 207.23 160.09 186.3 107.87 186.3 102.21 121.68 154.44 121.68 152.52 99.8 256.93 99.8 262.09 158.85 242.72 158.85 246.95 207.23" style="fill:#c7c7c7"></polygon><polygon points="154.95 122.15 154.47 122.15 154.45 121.91 154.93 121.91 154.95 122.15" style="fill:#c7c7c7"></polygon><polygon points="103.78 136.86 104.02 136.86 104.06 137.33 103.82 137.33 103.78 136.86" style="fill:#c7c7c7"></polygon><polygon points="153.6 121.67 153.13 122.15 102.73 122.15 103.9 135.5 103.46 135.94 102.21 121.67 153.6 121.67" style="fill:#c7c7c7"></polygon><polygon points="242.2 158.38 242.67 158.38 242.7 158.67 242.22 158.67 242.2 158.38" style="fill:#c7c7c7"></polygon><polygon points="237.09 100.04 237.57 100.04 237.59 100.27 237.12 100.27 237.09 100.04" style="fill:#c7c7c7"></polygon><polygon points="256.93 99.8 262.09 158.86 243.31 158.86 242.76 158.38 261.58 158.38 256.49 100.27 238.63 100.27 238.08 99.8 256.93 99.8" style="fill:#c7c7c7"></polygon><polygon points="250.29 209.96 239.62 209.96 239.57 209.49 249.78 209.49 245.56 161.29 265.11 161.29 259.51 97.26 149.67 97.26 151.58 119.07 99.38 119.07 105.49 188.89 157.63 188.89 159.44 209.49 227.82 209.49 227.86 209.96 159 209.96 157.2 189.36 105.05 189.36 98.86 118.6 151.06 118.6 149.15 96.78 259.94 96.78 265.63 161.76 246.08 161.76 250.29 209.96" style="fill:#c7c7c7"></polygon><polygon points="242.48 158.85 231.6 158.85 231.56 158.38 242.44 158.38 242.48 158.85" style="fill:#c7c7c7"></polygon><polygon points="220.65 158.85 157.69 158.85 154.46 121.91 154.93 121.91 158.12 158.38 220.61 158.38 220.65 158.85" style="fill:#c7c7c7"></polygon><polygon points="158.9 167.31 158.43 167.31 157.67 158.62 158.14 158.62 158.9 167.31" style="fill:#c7c7c7"></polygon><polygon points="160.54 186.06 160.07 186.06 159.31 177.38 159.78 177.38 160.54 186.06" style="fill:#c7c7c7"></polygon><path d="M148.93,177.39c0-.19-.47-4.6,2.27-7.67,1.67-1.88,4.17-2.83,7.43-2.83l0,.47c-3.12,0-5.51.91-7.1,2.69-2.62,2.94-2.17,7.28-2.17,7.33Z" style="fill:#c7c7c7"></path><path d="M236.08,207h-.48a9.14,9.14,0,0,0-2.95-6.27c-3.45-3.12-8.72-3.06-8.76-3l0-.48c.23,0,5.52-.06,9.12,3.19A9.73,9.73,0,0,1,236.08,207Z" style="fill:#c7c7c7"></path><path d="M231.85,158.6h-.48a9.24,9.24,0,0,0-3-6.27c-3.45-3.12-8.72-3.05-8.77-3.05l-.05-.47c.24,0,5.52-.07,9.12,3.18A9.71,9.71,0,0,1,231.85,158.6Z" style="fill:#c7c7c7"></path><polygon points="156.04 137.33 103.82 137.33 103.78 136.86 156 136.86 156.04 137.33" style="fill:#c7c7c7"></polygon><polygon points="242.7 158.67 242.23 158.67 237.1 100.04 237.57 100.04 242.7 158.67" style="fill:#c7c7c7"></polygon><polygon points="149.2 93.21 148.96 93.21 148.81 91.43 149.04 91.43 149.2 93.21" style="fill:#c7c7c7"></polygon><polygon points="259.51 93.21 259.28 93.21 259.12 91.43 259.36 91.43 259.51 93.21" style="fill:#c7c7c7"></polygon><polygon points="259.33 92.44 149.01 92.44 148.99 92.2 259.31 92.2 259.33 92.44" style="fill:#c7c7c7"></polygon><polygon points="159.84 214.82 159.6 214.82 159.45 213.03 159.68 213.03 159.84 214.82" style="fill:#c7c7c7"></polygon><polygon points="250.68 214.82 250.45 214.82 250.29 213.03 250.53 213.03 250.68 214.82" style="fill:#c7c7c7"></polygon><polygon points="250.5 214.04 159.65 214.04 159.63 213.81 250.48 213.81 250.5 214.04" style="fill:#c7c7c7"></polygon><polygon points="266.08 97.05 264.13 97.05 264.11 96.81 266.06 96.81 266.08 97.05" style="fill:#c7c7c7"></polygon><polygon points="271.74 161.74 269.79 161.74 269.77 161.5 271.71 161.5 271.74 161.74" style="fill:#c7c7c7"></polygon><polygon points="270.87 161.62 270.64 161.62 264.98 96.93 265.21 96.93 270.87 161.62" style="fill:#c7c7c7"></polygon><polygon points="95.86 119.06 93.92 119.06 93.9 118.82 95.84 118.82 95.86 119.06" style="fill:#c7c7c7"></polygon><polygon points="102 189.19 100.05 189.19 100.03 188.95 101.97 188.95 102 189.19" style="fill:#c7c7c7"></polygon><polygon points="101.13 189.07 100.89 189.07 94.76 118.94 95 118.94 101.13 189.07" style="fill:#c7c7c7"></polygon></g><g id="freepik--Table--inject-29"><rect x="216.57" y="293.49" width="233.27" height="87.12" transform="translate(666.4 674.1) rotate(180)" style="fill:#37474f"></rect><rect x="216.57" y="293.48" width="233.26" height="87.12" style="fill:#37474f"></rect><polygon points="431.16 445.24 437.77 445.24 440.26 380.61 428.67 380.61 431.16 445.24" style="fill:#37474f"></polygon><polygon points="428.67 380.61 429.14 390.66 439.78 390.66 440.26 380.61 428.67 380.61" style="fill:#263238"></polygon><polygon points="401.68 445.24 408.29 445.24 410.78 380.61 399.19 380.61 401.68 445.24" style="fill:#37474f"></polygon><polygon points="399.19 380.61 399.66 390.66 410.31 390.66 410.78 380.61 399.19 380.61" style="fill:#263238"></polygon><polygon points="253.57 445.24 260.18 445.24 262.67 380.61 251.09 380.61 253.57 445.24" style="fill:#37474f"></polygon><polygon points="251.08 380.61 251.56 390.66 262.2 390.66 262.67 380.61 251.08 380.61" style="fill:#263238"></polygon><polygon points="228.64 445.24 235.25 445.24 237.73 380.61 226.15 380.61 228.64 445.24" style="fill:#37474f"></polygon><polygon points="226.15 380.61 226.62 390.66 237.26 390.66 237.73 380.61 226.15 380.61" style="fill:#263238"></polygon><rect x="207.52" y="283.04" width="251.36" height="10.51" transform="translate(666.4 576.58) rotate(180)" style="fill:#37474f"></rect><rect x="407.73" y="293.48" width="42.1" height="87.12" style="fill:#455a64"></rect><rect x="216.57" y="293.49" width="233.26" height="10.14" style="fill:#263238"></rect><rect x="418.53" y="283.04" width="40.35" height="10.51" style="fill:#455a64"></rect></g><g id="freepik--Model--inject-29"><polygon points="328.8 217.4 326.53 234.79 320.99 234.33 320.99 219.36 328.8 217.4" style="fill:#F0B400"></polygon><polygon points="328.8 217.4 326.53 234.79 320.99 234.33 320.99 219.36 328.8 217.4" style="opacity:0.30000000000000004"></polygon><polygon points="397.58 245.49 397.58 277.06 320.99 277.06 320.99 239.08 340.3 240.7 397.58 245.49" style="fill:#F0B400"></polygon><polygon points="397.58 245.49 397.58 277.06 320.99 277.06 320.99 239.08 340.3 240.7 397.58 245.49" style="opacity:0.1"></polygon><g style="opacity:0.1"><path d="M339.08,240.6q-9,0-18.09-.09l16.17-.08Z"></path><path d="M364.13,242.69h-4.84l-19.15,0q-9.57,0-19.15-.08,9.58-.08,19.15-.09l19.15,0h2.22Z"></path><path d="M388.16,244.7l-9.73,0-19.14,0-19.15,0q-9.57,0-19.15-.09,9.58-.06,19.15-.08l19.15,0,19.14,0c2.79,0,5.59,0,8.37,0Z"></path><path d="M397.58,246.71q-9.57-.06-19.15-.09l-19.14,0-19.15,0-19.15.09,19.15.09,19.15,0,19.14,0Q388,246.77,397.58,246.71Z"></path><path d="M397.58,248.78q-9.57-.08-19.15-.09l-19.14,0-19.15,0q-9.57,0-19.15.09l19.15.09,19.15,0,19.14,0Q388,248.84,397.58,248.78Z"></path><path d="M397.58,250.84q-9.57-.06-19.15-.09l-19.14,0-19.15,0-19.15.09q9.58.06,19.15.09l19.15,0,19.14,0Q388,250.91,397.58,250.84Z"></path><path d="M397.58,252.91q-9.57-.07-19.15-.09l-19.14,0-19.15,0q-9.57,0-19.15.09l19.15.09,19.15,0,19.14,0Q388,253,397.58,252.91Z"></path><path d="M397.58,255q-9.57-.06-19.15-.09l-19.14,0-19.15,0L321,255q9.58.08,19.15.09l19.15,0,19.14,0Q388,255,397.58,255Z"></path><path d="M397.58,257Q388,257,378.43,257l-19.14,0-19.15,0q-9.57,0-19.15.09l19.15.09,19.15,0,19.14,0Q388,257.1,397.58,257Z"></path><path d="M397.58,259.1Q388,259,378.43,259l-19.14,0-19.15,0L321,259.1q9.58.07,19.15.09l19.15,0,19.14,0Q388,259.18,397.58,259.1Z"></path><path d="M397.58,261.17q-9.57-.06-19.15-.09l-19.14,0-19.15,0-19.15.09,19.15.09,19.15,0,19.14,0Q388,261.23,397.58,261.17Z"></path><path d="M397.58,263.24q-9.57-.08-19.15-.09l-19.14,0-19.15,0q-9.57,0-19.15.09l19.15.09,19.15,0,19.14,0Q388,263.31,397.58,263.24Z"></path><path d="M397.58,265.3q-9.57-.06-19.15-.09l-19.14,0-19.15,0L321,265.3q9.58.06,19.15.09l19.15,0,19.14,0Q388,265.36,397.58,265.3Z"></path><path d="M397.58,267.37q-9.57-.08-19.15-.09l-19.14,0-19.15,0q-9.57,0-19.15.09l19.15.09,19.15,0,19.14,0Q388,267.43,397.58,267.37Z"></path><path d="M397.58,269.43q-9.57-.06-19.15-.09l-19.14,0-19.15,0-19.15.09q9.58.07,19.15.09l19.15,0,19.14,0Q388,269.51,397.58,269.43Z"></path><path d="M397.58,271.5q-9.57-.06-19.15-.09l-19.14,0-19.15,0q-9.57,0-19.15.09l19.15.09,19.15,0,19.14,0Q388,271.56,397.58,271.5Z"></path><path d="M397.58,273.56q-9.57-.06-19.15-.09l-19.14,0-19.15,0-19.15.09q9.58.07,19.15.09l19.15,0,19.14,0Q388,273.64,397.58,273.56Z"></path><path d="M397.58,275.63q-9.57-.06-19.15-.09l-19.14,0-19.15,0-19.15.09,19.15.09,19.15,0,19.14,0Q388,275.69,397.58,275.63Z"></path></g><polygon points="406.88 246.26 406.88 241.51 320.99 234.33 320.99 239.08 406.88 246.26" style="fill:#263238"></polygon><polygon points="397.58 248.07 397.58 245.48 406.88 246.26 397.58 248.07" style="fill:#37474f"></polygon><rect x="350.58" y="249.26" width="36.72" height="16.79" transform="translate(737.88 515.3) rotate(180)" style="fill:#263238"></rect><rect x="375.52" y="250.68" width="10.36" height="13.93" transform="translate(761.4 515.3) rotate(180)" style="fill:#fff"></rect><rect x="363.76" y="250.68" width="10.36" height="13.93" transform="translate(737.88 515.3) rotate(180)" style="fill:#fff"></rect><rect x="352" y="250.68" width="10.36" height="13.93" transform="translate(714.36 515.3) rotate(180)" style="fill:#fff"></rect><polygon points="377.45 250.69 385.88 259.12 385.88 254.5 382.06 250.69 377.45 250.69" style="fill:#ebebeb"></polygon><polygon points="352 259.12 352 263.73 352.88 264.61 357.5 264.61 352 259.12" style="fill:#ebebeb"></polygon><polygon points="383.53 264.61 375.52 256.6 375.52 258.91 381.22 264.61 383.53 264.61" style="fill:#ebebeb"></polygon><polygon points="367.3 250.69 374.12 257.51 374.12 255.21 369.6 250.69 367.3 250.69" style="fill:#ebebeb"></polygon><polygon points="352 254.16 352 256.46 360.15 264.61 362.36 264.61 362.36 264.52 352 254.16" style="fill:#ebebeb"></polygon><polygon points="370.81 264.61 363.76 257.56 363.76 258.14 370.23 264.61 370.81 264.61" style="fill:#ebebeb"></polygon><polygon points="356.3 250.69 362.36 256.75 362.36 256.17 356.88 250.69 356.3 250.69" style="fill:#ebebeb"></polygon><polygon points="385.76 264.61 375.52 254.37 375.52 254.95 385.18 264.61 385.76 264.61" style="fill:#ebebeb"></polygon><polygon points="371.25 250.69 374.12 253.55 374.12 252.98 371.83 250.69 371.25 250.69" style="fill:#ebebeb"></polygon><rect x="324.52" y="249.26" width="12.25" height="27.8" style="fill:#263238"></rect><rect x="325.09" y="264.29" width="2.27" height="0.63" style="fill:#dbdbdb"></rect><rect x="325.96" y="250.68" width="9.06" height="12.98" transform="translate(660.97 514.35) rotate(180)" style="fill:#fff"></rect><rect x="326.11" y="265.34" width="9.06" height="10.08" transform="translate(661.29 540.75) rotate(180)" style="fill:#fff"></rect><polygon points="325.96 251.24 325.96 255.85 333.77 263.67 335.02 263.67 335.02 260.3 325.96 251.24" style="fill:#ebebeb"></polygon><polygon points="326.22 265.34 335.18 274.29 335.18 271.98 328.53 265.34 326.22 265.34" style="fill:#ebebeb"></polygon><polygon points="325.96 262.76 325.96 263.67 326.86 263.67 325.96 262.76" style="fill:#ebebeb"></polygon><polygon points="329.7 250.69 335.02 256 335.02 253.7 332 250.69 329.7 250.69" style="fill:#ebebeb"></polygon><polygon points="326.12 267.04 326.12 267.62 333.91 275.41 334.49 275.41 326.12 267.04" style="fill:#ebebeb"></polygon><polygon points="320.99 277.06 320.99 219.36 249.13 237.4 249.13 277.06 320.99 277.06" style="fill:#263238"></polygon><polygon points="239.55 239.81 328.8 217.4 328.8 212.52 239.55 234.93 239.55 239.81" style="fill:#263238"></polygon><polygon points="249.13 237.4 249.13 241.83 239.55 239.81 249.13 237.4" style="fill:#F0B400"></polygon><polygon points="249.13 237.4 249.13 241.83 239.55 239.81 249.13 237.4" style="opacity:0.30000000000000004"></polygon><polygon points="303.99 226.15 303.99 249.26 318.65 249.26 318.65 222.47 303.99 226.15" style="fill:#fff"></polygon><rect x="303.99" y="251.67" width="14.66" height="22.98" style="fill:#fff"></rect><polygon points="286.68 230.5 286.68 249.26 301.35 249.26 301.35 226.81 286.68 230.5" style="fill:#fff"></polygon><rect x="286.68" y="251.67" width="14.67" height="22.98" style="fill:#fff"></rect><polygon points="269.38 234.84 269.38 249.26 284.04 249.26 284.04 231.16 269.38 234.84" style="fill:#fff"></polygon><rect x="269.37" y="251.67" width="14.66" height="22.98" style="fill:#fff"></rect><polygon points="252.07 239.18 252.07 249.26 266.73 249.26 266.73 235.5 252.07 239.18" style="fill:#fff"></polygon><rect x="252.07" y="251.67" width="14.67" height="22.98" style="fill:#fff"></rect><g style="opacity:0.5"><polygon points="312.01 224.13 318.65 230.77 318.65 226.16 315.7 223.21 312.01 224.13" style="fill:#ebebeb"></polygon><polygon points="252.07 264.31 252.07 268.93 257.79 274.65 262.4 274.65 252.07 264.31" style="fill:#ebebeb"></polygon><polygon points="292.46 274.65 286.68 268.87 286.68 273.48 287.85 274.65 292.46 274.65" style="fill:#ebebeb"></polygon><polygon points="269.38 251.67 269.38 256.17 284.04 270.84 284.04 266.23 269.49 251.67 269.38 251.67" style="fill:#ebebeb"></polygon><polygon points="266.73 251.67 264.88 251.67 266.73 253.53 266.73 251.67" style="fill:#ebebeb"></polygon><polygon points="252.32 239.12 262.46 249.26 266.73 249.26 266.73 248.92 256.01 238.19 252.32 239.12" style="fill:#ebebeb"></polygon><polygon points="318.65 268.23 303.99 253.57 303.99 255.87 318.65 270.54 318.65 268.23" style="fill:#ebebeb"></polygon><polygon points="301.35 251.67 299.78 251.67 301.35 253.24 301.35 251.67" style="fill:#ebebeb"></polygon><polygon points="299.68 249.26 286.68 236.26 286.68 238.57 297.37 249.26 299.68 249.26" style="fill:#ebebeb"></polygon><polygon points="280.23 232.12 284.04 235.93 284.04 233.62 282.07 231.65 280.23 232.12" style="fill:#ebebeb"></polygon><polygon points="303.99 226.15 303.99 227.72 318.65 242.38 318.65 240.08 304.57 226 303.99 226.15" style="fill:#ebebeb"></polygon><polygon points="298.41 274.65 286.68 262.93 286.68 265.23 296.1 274.65 298.41 274.65" style="fill:#ebebeb"></polygon><polygon points="273.12 251.67 284.04 262.59 284.04 260.29 275.42 251.67 273.12 251.67" style="fill:#ebebeb"></polygon><polygon points="273.01 249.26 269.38 245.62 269.38 247.93 270.71 249.26 273.01 249.26" style="fill:#ebebeb"></polygon><polygon points="258.91 237.46 266.73 245.28 266.73 242.98 260.75 237 258.91 237.46" style="fill:#ebebeb"></polygon><polygon points="277.05 274.65 269.38 266.97 269.38 267.55 276.47 274.65 277.05 274.65" style="fill:#ebebeb"></polygon><polygon points="253.5 251.67 266.73 264.91 266.73 264.33 254.08 251.67 253.5 251.67" style="fill:#ebebeb"></polygon><polygon points="307.8 251.67 307.22 251.67 318.65 263.1 318.65 262.53 307.8 251.67" style="fill:#ebebeb"></polygon><polygon points="305.38 249.26 303.99 247.86 303.99 248.44 304.8 249.26 305.38 249.26" style="fill:#ebebeb"></polygon><polygon points="286.68 230.56 286.68 231.14 301.35 245.8 301.35 245.22 286.68 230.56" style="fill:#ebebeb"></polygon></g><rect x="238.36" y="280.04" width="169.71" height="2.99" transform="translate(646.43 563.08) rotate(180)" style="fill:#dbdbdb"></rect><rect x="242.3" y="277.06" width="161.84" height="2.99" transform="translate(646.43 557.1) rotate(180)" style="fill:#dbdbdb"></rect><polygon points="404.13 280.04 404.13 279.3 242.3 278.55 242.3 280.04 404.13 280.04" style="fill:#a6a6a6"></polygon></g><g id="freepik--Character--inject-29"><path d="M85.86,425.88c-.26,1.49-.5,2.95-.73,4.36-1.47,9.07-2.35,16.07-1.67,16.71,2.09,2,64.71,14.55,67,14.26s1.66-7-.38-9.39c-1.24-1.48-9.79-7.8-16.31-12.52a.07.07,0,0,1,0,0c-4.19-3-7.53-5.41-7.53-5.41L140.2,394l-42.61-8.84S86.26,423.48,85.86,425.88Z" style="fill:#d3766a"></path><path d="M150.5,461.21c-2.33.29-64.95-12.28-67-14.27-.68-.63.2-7.63,1.67-16.7l.33-2c8.19,2.1,38.09,15.23,51,15.81,4.61.21-.71-3.4-.71-3.4,6.18,4.5,13.29,9.8,14.42,11.13C152.16,454.24,152.83,460.91,150.5,461.21Z" style="fill:#263238"></path><path d="M129.44,424.73s22-61.23,27.55-82.59c8-30.81,15.81-81,18.15-91.5a153.8,153.8,0,0,0,9.73-37.54s-50.62,0-50.62,0-13.28,25.39-6.43,43.34c.63,1.64-10,64.6-13.73,75.34C109.26,345.66,88.86,415,88.86,415Z" style="fill:#d3766a"></path><path d="M162.23,430.28c0,2.55.09,5.06.16,7.49,0,1.52.08,3,.13,4.42.32,9.18.81,16.22,1.61,16.72,2.43,1.54,66.29,1.73,68.53,1s.27-7.16-2.2-9.14c-1.5-1.2-11.12-5.75-18.43-9.12l0,0c-4.7-2.16-8.44-3.85-8.44-3.85l.21-7.49.39-34.13h-42S162,413.72,162.23,430.28Z" style="fill:#d3766a"></path><path d="M232.66,459.91c-2.24.72-66.1.54-68.53-1-.8-.5-1.3-7.53-1.6-16.71-.05-1.31-.09-2.65-.13-4,7.85,1,41.67,8.34,56.14,8.34,3.52,0-2.07-2.41-1.38-2.46,6.07,2.84,12.13,5.79,13.3,6.72C232.93,452.74,234.89,459.16,232.66,459.91Z" style="fill:#263238"></path><path d="M154.7,258.39s7.21,70.76,7.33,72.44c.05.65.13,95.47.13,95.47h41.67s1.1-89.38.38-99.37c-.09-1.17-3.17-73.1-17.05-113.83h-53s.46,23.93,11.34,41.24A90.57,90.57,0,0,1,154.7,258.39Z" style="fill:#d3766a"></path><path d="M162.14,326.92a.06.06,0,0,0-.06,0,.07.07,0,0,0-.06,0,.15.15,0,0,0,0,.07l0,.17a0,0,0,0,0,0,0h0a0,0,0,0,0,.06,0l0-.16A.06.06,0,0,0,162.14,326.92Z" style="fill:#263238"></path><path d="M134.18,213.1h54.09s18.8,86.49,18.83,164.25c0,0-44.59,10.11-66.91,3.14A354.6,354.6,0,0,1,102,366.21s12.27-39.75,13.09-42.77,11.39-66,11.39-66.95A61.42,61.42,0,0,1,134.18,213.1Z" style="fill:#263238"></path><path d="M164.09,269a43.52,43.52,0,0,0-9.38-6.27A58.93,58.93,0,0,0,144,258.82c-2.29-.62-4.67-1.06-6.93-1.81-.09,0-.13.12,0,.15,2,.6,3.91,1.45,5.84,2.2,1.74.67,3.5,1.31,5.25,2,3.52,1.33,7,2.68,10.43,4.31A31.22,31.22,0,0,1,164,269,0,0,0,1,0,164.09,269Z" style="fill:#37474f"></path><path d="M167,275.31a9.5,9.5,0,0,0-2.13-2.3c-1-.89-2.05-1.74-3.12-2.56a77.41,77.41,0,0,0-6.52-4.54c-.07,0-.15.07-.09.13,1.88,1.73,3.87,3.43,5.92,5,1,.74,1.95,1.49,3,2.17a9.18,9.18,0,0,1,2.77,2.25A.11.11,0,0,0,167,275.31Z" style="fill:#37474f"></path><path d="M158.91,117.16c-5.53,6-6.77,15.52-6.77,15.52s-5.13,9.77-3.36,14.86a9.45,9.45,0,0,0,6.27,6.12l-.67-2.84s2,3.6,8.28,4.81,14.39-1,18.57-3.4a16.38,16.38,0,0,0,6-5.79l-1.42,4.23a12.33,12.33,0,0,0,9.31-7c3.3-6.56-7.37-15.32-8.33-17.27S184.13,110,169,113.17C169,113.17,162.71,113,158.91,117.16Z" style="fill:#a6a6a6"></path><path d="M152.84,153.38a9.67,9.67,0,0,1-4.2-4,8.86,8.86,0,0,1-1.21-5.66,19.74,19.74,0,0,1,2.58-6.54c1.15-2.13,2.46-4.18,3.57-6.34.06-.11-.12-.2-.2-.11a53.42,53.42,0,0,0-3.56,5.14,25.47,25.47,0,0,0-2.76,5.24,9.5,9.5,0,0,0-.47,5.35,9.14,9.14,0,0,0,2.07,3.91,20,20,0,0,0,4.1,3.17C152.85,153.57,152.94,153.42,152.84,153.38Z" style="fill:#a6a6a6"></path><path d="M196.15,137c-2.05-5.24-7-8.41-10.1-12.92-1.68-2.44-3-5.17-5.17-7.27-.06,0-.15,0-.1.11,1.77,1.89,2.85,4.21,4.16,6.4a38.56,38.56,0,0,0,4.8,6.08c3.17,3.48,7,7.6,6.49,12.69-.22,2.35-1.49,5-3.85,5.82-.09,0,0,.18.06.14a7.48,7.48,0,0,0,4-4.37A9.5,9.5,0,0,0,196.15,137Z" style="fill:#a6a6a6"></path><path d="M196.43,138.42a9.86,9.86,0,0,0-1.58-5.72,13.9,13.9,0,0,0-4.52-3.86c-2-1.19-4-2.3-5.31-4.25-.05-.08-.17,0-.12.09,2.06,3.22,5.77,4.61,8.36,7.28,3,3.06,3.16,7.7,1.38,11.42a16.17,16.17,0,0,1-4.84,5.74,0,0,0,0,0,0,.06C193.33,146.66,196.34,142.9,196.43,138.42Z" style="fill:#a6a6a6"></path><path d="M157.59,166.63c3.82,10.69,13.57,33.59,20.86,32.16,11.2-2.21,25.25-23.76,31.35-32,3.12-4.19-20.27-21.36-23-16.17-3.53,6.85-6.7,20.37-9.16,21.55-.49.23-5.62-6.79-11.61-13.39C158.05,150,154,156.46,157.59,166.63Z" style="fill:#d3766a"></path><path d="M183.27,158.28l20.43,21.33s-18.62,21.61-26.86,20-17.37-20.5-20.11-33.53,2.89-15.07,10.21-7.46c6.54,6.8,10.49,12.43,10.82,12.35S183.27,158.28,183.27,158.28Z" style="fill:#F0B400"></path><path d="M183.27,158.28l20.43,21.33s-18.62,21.61-26.86,20-17.37-20.5-20.11-33.53,2.89-15.07,10.21-7.46c6.54,6.8,10.49,12.43,10.82,12.35S183.27,158.28,183.27,158.28Z" style="opacity:0.1"></path><path d="M174.73,173.2a1,1,0,0,1-.54-.18,1,1,0,0,1-.48-.88,1.32,1.32,0,0,0-.84-1.21,2.61,2.61,0,0,0-1.37.07c.21.06.43.09.65.13a1.15,1.15,0,0,1,.55.16,1,1,0,0,1,.5.86,1.33,1.33,0,0,0,.81,1.23,2.34,2.34,0,0,0,1.37-.06Zm28.11,5.52a3.3,3.3,0,0,0-1.09.13c.22.05.44.08.66.12a1.18,1.18,0,0,1,.55.16,1.05,1.05,0,0,1,.49.77l.25-.29Zm-21.37,13a1.05,1.05,0,0,1-.54-.18,1,1,0,0,1-.47-.88,1.31,1.31,0,0,0-.85-1.21,2.61,2.61,0,0,0-1.37.07c.22.06.43.08.65.13a1.11,1.11,0,0,1,.56.16,1,1,0,0,1,.5.86,1.31,1.31,0,0,0,.8,1.22,2.26,2.26,0,0,0,1.37-.05C181.91,191.75,181.69,191.73,181.47,191.69Zm-18.56-27.64a1.15,1.15,0,0,1-.5.28,1,1,0,0,1-1-.25,1.3,1.3,0,0,0-1.43-.3,2.36,2.36,0,0,0-.94,1,5.28,5.28,0,0,0,.55-.37,1.13,1.13,0,0,1,.51-.26,1.06,1.06,0,0,1,1,.3,1.31,1.31,0,0,0,1.45.25c.49-.24.66-.66.92-1C163.26,163.79,163.09,163.93,162.91,164.05ZM186,167.18a1.1,1.1,0,0,1-.5.28,1,1,0,0,1-1-.26,1.33,1.33,0,0,0-1.44-.29,2.36,2.36,0,0,0-.94,1c.2-.11.37-.25.55-.37a1.18,1.18,0,0,1,.51-.26,1,1,0,0,1,1,.29,1.31,1.31,0,0,0,1.45.26,2.61,2.61,0,0,0,.92-1C186.38,166.92,186.21,167.06,186,167.18ZM170,194.25a2.7,2.7,0,0,0-.08.39c.06.08.13.15.2.23C170,194.65,170,194.45,170,194.25ZM158.69,173l0,.11a2.3,2.3,0,0,0,.12.34Zm37-1.72a2.9,2.9,0,0,0,.11,1.15c.06-.22.08-.44.12-.66a1.55,1.55,0,0,1,0-.21Zm-6.92,6.35c-.06.21-.08.43-.12.65a1.18,1.18,0,0,1-.16.55,1,1,0,0,1-.86.5,1.32,1.32,0,0,0-1.23.81,2.34,2.34,0,0,0,0,1.37c.06-.22.08-.44.13-.65a1.11,1.11,0,0,1,.17-.54,1,1,0,0,1,.89-.48,1.29,1.29,0,0,0,1.2-.85A2.48,2.48,0,0,0,188.8,177.63Zm-18.89,4.25a1.13,1.13,0,0,1-.51.26,1,1,0,0,1-1-.29,1.33,1.33,0,0,0-1.46-.26,2.65,2.65,0,0,0-.91,1c.19-.11.36-.25.54-.37a1.13,1.13,0,0,1,.51-.28,1,1,0,0,1,1,.26,1.33,1.33,0,0,0,1.44.29c.5-.22.68-.65.93-1C170.27,181.62,170.1,181.76,169.91,181.88Z" style="fill:#fff"></path><path d="M190.19,173.5c-2.9-3.12-5.77-6.3-8.85-9.23a.06.06,0,0,0-.08.08c2.66,3.38,5.59,6.59,8.46,9.79s5.81,6.26,8.85,9.24c.06.06.15,0,.1-.09C195.94,179.94,193.13,176.67,190.19,173.5Z" style="fill:#263238"></path><path d="M177.64,170.86a56.82,56.82,0,0,0-1.57,10,46.49,46.49,0,0,0-.11,5c.08,1.76.38,3.49.51,5.24,0,.1.16.1.15,0-.09-1.7.08-3.44.15-5.14s.11-3.34.18-5c.15-3.37.49-6.72.83-10.07C177.79,170.79,177.66,170.78,177.64,170.86Z" style="fill:#263238"></path><path d="M204.84,171.47c2.73-1.76,19.46-10.78,22.17-14.06s9.8-13.31,7.5-15.64-4.62.44-4.62.44,2.33-4.7-.21-6.83-6,2.29-6,2.29,2-5-.64-6.95-5.41,3.08-5.41,3.08,2.08-4.49-.81-5.16c-3.46-.81-6.36,7.9-9.62,11.3-.74.78-16.11,14.6-16.11,14.6Z" style="fill:#d3766a"></path><path d="M217.88,133.38c-2.14,6.4-4.19,8.83-9.34,13a.1.1,0,0,0,.12.17c5.41-3.65,8.42-6.33,9.54-13.12C218.25,133.13,218,133.07,217.88,133.38Z" style="fill:#263238"></path><path d="M223.85,137.16c-2.8,6.45-5,9.11-10.07,13.91-.07.06,0,.19.12.13,5.36-4.29,8.3-7,10.26-13.85C224.24,137,224,136.86,223.85,137.16Z" style="fill:#263238"></path><path d="M229.62,142.45c-3.17,6.05-5.45,9.07-11,13.1a.12.12,0,0,0,.13.21c6-3.56,8.9-7.3,11-13.19C229.94,142.16,229.82,142.07,229.62,142.45Z" style="fill:#263238"></path><path d="M262.15,192.41c-24.19-6.56-48.52-12.37-72.67-21,8.85-17,17.65-32.75,26.54-48.31,24.32,9.21,48.84,13.48,72.8,16.37C280,158.63,271.07,175.87,262.15,192.41Z" style="fill:#455a64"></path><g style="opacity:0.1"><path d="M219.33,124.33c-4.43,7.83-8.84,15.66-13.25,23.66s-8.87,16.13-13.31,24.59C197.18,164.11,201.58,156,206,148S214.87,132.15,219.33,124.33Z" style="fill:#fdfeff"></path><path d="M222.65,125.5c-4.44,7.86-8.86,15.71-13.27,23.7s-8.88,16.1-13.32,24.5c4.41-8.42,8.82-16.54,13.23-24.53S218.18,133.35,222.65,125.5Z" style="fill:#fdfeff"></path><path d="M226,126.61c-4.44,7.91-8.87,15.78-13.28,23.76s-8.89,16.07-13.33,24.43c4.41-8.37,8.82-16.47,13.23-24.46S221.5,134.51,226,126.61Z" style="fill:#fdfeff"></path><path d="M229.3,127.66c-4.45,8-8.88,15.86-13.3,23.84s-8.9,16.05-13.34,24.36c4.41-8.32,8.82-16.4,13.24-24.39S224.82,135.61,229.3,127.66Z" style="fill:#fdfeff"></path><path d="M232.62,128.67c-4.45,8-8.89,15.93-13.31,23.92s-8.9,16-13.35,24.31c4.42-8.28,8.83-16.34,13.25-24.34S228.14,136.66,232.62,128.67Z" style="fill:#fdfeff"></path><path d="M235.94,129.62c-4.45,8.06-8.89,16-13.32,24s-8.91,16-13.35,24.28c4.41-8.25,8.83-16.3,13.26-24.3S231.46,137.67,235.94,129.62Z" style="fill:#fdfeff"></path><path d="M239.27,130.52c-4.46,8.12-8.9,16.12-13.34,24.14s-8.91,16-13.36,24.25c4.42-8.22,8.84-16.26,13.27-24.28S234.78,138.63,239.27,130.52Z" style="fill:#fdfeff"></path><path d="M242.59,131.37c-4.46,8.19-8.91,16.23-13.34,24.27s-8.92,16.06-13.37,24.24c4.42-8.19,8.84-16.23,13.27-24.27S238.1,139.55,242.59,131.37Z" style="fill:#fdfeff"></path><path d="M245.92,132.18c-4.47,8.26-8.92,16.35-13.36,24.41s-8.93,16.08-13.37,24.24c4.41-8.16,8.84-16.2,13.28-24.27S241.42,140.43,245.92,132.18Z" style="fill:#fdfeff"></path><path d="M249.24,132.94c-4.46,8.34-8.92,16.48-13.36,24.57s-8.94,16.12-13.39,24.26c4.42-8.15,8.85-16.2,13.3-24.29S244.74,141.27,249.24,132.94Z" style="fill:#fdfeff"></path><path d="M252.56,133.67c-4.46,8.41-8.92,16.61-13.37,24.73s-8.94,16.16-13.39,24.29c4.42-8.14,8.85-16.19,13.3-24.31S248.06,142.07,252.56,133.67Z" style="fill:#fdfeff"></path><path d="M255.87,134.35c-4.46,8.5-8.92,16.75-13.36,24.92s-8.95,16.21-13.4,24.32c4.42-8.12,8.86-16.19,13.3-24.35S251.38,142.84,255.87,134.35Z" style="fill:#fdfeff"></path><path d="M259.19,135c-4.46,8.58-8.92,16.9-13.37,25.11s-8.95,16.27-13.41,24.38c4.43-8.12,8.87-16.2,13.32-24.41S254.7,143.58,259.19,135Z" style="fill:#fdfeff"></path><path d="M262.5,135.61c-4.46,8.68-8.92,17.07-13.37,25.32s-8.95,16.34-13.41,24.45c4.43-8.12,8.87-16.23,13.32-24.48S258,144.28,262.5,135.61Z" style="fill:#fdfeff"></path><path d="M265.8,136.19c-4.45,8.77-8.9,17.24-13.36,25.54s-8.95,16.41-13.42,24.53c4.44-8.12,8.88-16.26,13.33-24.56S261.32,145,265.8,136.19Z" style="fill:#fdfeff"></path><path d="M269.1,136.74c-4.44,8.87-8.89,17.41-13.35,25.77s-8.95,16.5-13.42,24.63c4.43-8.14,8.88-16.3,13.33-24.65S264.63,145.61,269.1,136.74Z" style="fill:#fdfeff"></path><path d="M272.4,137.25c-4.43,9-8.89,17.61-13.34,26s-9,16.6-13.43,24.74c4.44-8.14,8.89-16.35,13.34-24.76S267.93,146.23,272.4,137.25Z" style="fill:#fdfeff"></path><path d="M275.7,137.75c-4.43,9.09-8.88,17.8-13.33,26.27s-9,16.71-13.43,24.86c4.44-8.16,8.89-16.4,13.34-24.88S271.24,146.83,275.7,137.75Z" style="fill:#fdfeff"></path><path d="M279,138.21c-4.42,9.21-8.86,18-13.31,26.55s-9,16.82-13.43,25c4.44-8.19,8.89-16.47,13.34-25S274.53,147.41,279,138.21Z" style="fill:#fdfeff"></path><path d="M282.27,138.65c-4.41,9.33-8.85,18.23-13.3,26.84s-9,16.94-13.43,25.14c4.45-8.2,8.9-16.54,13.34-25.16S277.83,148,282.27,138.65Z" style="fill:#fdfeff"></path><path d="M285.55,139.08c-4.4,9.45-8.84,18.44-13.28,27.14s-8.95,17.07-13.42,25.3c4.44-8.24,8.89-16.63,13.33-25.32S281.12,148.52,285.55,139.08Z" style="fill:#fdfeff"></path><path d="M287.14,143.11c-12-1.6-24.14-3.52-36.32-6.19a257.93,257.93,0,0,1-36.49-10.84,256,256,0,0,0,36.55,10.73C263,139.52,275.14,141.47,287.14,143.11Z" style="fill:#fdfeff"></path><path d="M285.21,147.21c-12-1.8-24.17-3.87-36.34-6.66a266.47,266.47,0,0,1-36.48-11.07,266.94,266.94,0,0,0,36.53,11C261.08,143.27,273.19,145.37,285.21,147.21Z" style="fill:#fdfeff"></path><path d="M283.28,151.25c-12-2-24.19-4.19-36.36-7.09a280.12,280.12,0,0,1-36.46-11.26A279.1,279.1,0,0,0,247,144.06C259.13,147,271.25,149.23,283.28,151.25Z" style="fill:#fdfeff"></path><path d="M281.34,155.24c-12.06-2.15-24.2-4.5-36.37-7.49a293.92,293.92,0,0,1-36.45-11.42A292.28,292.28,0,0,0,245,147.65C257.18,150.67,269.3,153.05,281.34,155.24Z" style="fill:#fdfeff"></path><path d="M279.41,159.18c-12.08-2.31-24.22-4.78-36.39-7.85a306.35,306.35,0,0,1-36.43-11.56,306.39,306.39,0,0,0,36.48,11.46C255.22,154.33,267.35,156.83,279.41,159.18Z" style="fill:#fdfeff"></path><path d="M277.47,163.07c-12.09-2.46-24.23-5-36.4-8.18a324.21,324.21,0,0,1-36.41-11.66,322.85,322.85,0,0,0,36.46,11.56C253.27,158,265.4,160.58,277.47,163.07Z" style="fill:#fdfeff"></path><path d="M275.53,166.92c-12.1-2.6-24.25-5.28-36.41-8.48a339.45,339.45,0,0,1-36.39-11.73,337.25,337.25,0,0,0,36.44,11.63C251.32,161.57,263.45,164.29,275.53,166.92Z" style="fill:#fdfeff"></path><path d="M273.58,170.73c-12.1-2.73-24.25-5.5-36.41-8.75a355,355,0,0,1-36.36-11.77,357.64,357.64,0,0,0,36.42,11.67C249.37,165.16,261.5,168,273.58,170.73Z" style="fill:#fdfeff"></path><path d="M271.64,174.5c-12.11-2.85-24.25-5.7-36.41-9a374.7,374.7,0,0,1-36.35-11.77,372.9,372.9,0,0,0,36.4,11.67C247.42,168.74,259.55,171.62,271.64,174.5Z" style="fill:#fdfeff"></path><path d="M269.69,178.23c-12.11-2.95-24.25-5.87-36.4-9.19S209,161.92,197,157.3c12.08,4.59,24.24,8.32,36.39,11.64S257.6,175.24,269.69,178.23Z" style="fill:#fdfeff"></path><path d="M267.74,181.93c-12.11-3.05-24.25-6-36.4-9.36s-24.26-7.12-36.32-11.68c12.08,4.53,24.23,8.24,36.38,11.58S255.65,178.85,267.74,181.93Z" style="fill:#fdfeff"></path><path d="M265.8,185.6c-12.12-3.13-24.25-6.15-36.4-9.5s-24.25-7.09-36.31-11.58c12.08,4.45,24.23,8.13,36.37,11.48S253.7,182.43,265.8,185.6Z" style="fill:#fdfeff"></path><path d="M263.85,189.24c-12.11-3.2-24.24-6.26-36.38-9.6s-24.25-7-36.31-11.46c12.08,4.38,24.22,8,36.36,11.36S251.75,186,263.85,189.24Z" style="fill:#fdfeff"></path></g><path d="M244.36,153.22l-1.73-.62v-.06l2.88-5.29.06,0,2.94-.08,0,.07c-1.36,2-2.73,4-4.09,6Zm-1.63-.7,1.65.59,4-5.88-2.83.08C244.62,149.05,243.68,150.79,242.73,152.52Z" style="fill:#fdfeff"></path><path d="M244.36,153.22l-1.73-.62v-.06l2.88-5.29.06,0,2.94-.08,0,.07c-1.36,2-2.73,4-4.09,6Zm-1.63-.7,1.65.59,4-5.88-2.83.08C244.62,149.05,243.68,150.79,242.73,152.52Z" style="fill:#fdfeff;opacity:0.30000000000000004"></path><path d="M259.46,174c-8.34-2-16.69-4.12-25-6.4l0-.06q3.65-6.63,7.3-13.29l.08,0c7.95,2.91,15.89,5.58,23.82,8.19v.06q-3,5.82-6.08,11.5Zm-24.94-6.48c8.32,2.27,16.64,4.35,25,6.37,2-3.76,4-7.55,6-11.41-7.9-2.59-15.81-5.26-23.74-8.15Z" style="fill:#fdfeff"></path><path d="M259.46,174c-8.34-2-16.69-4.12-25-6.4l0-.06q3.65-6.63,7.3-13.29l.08,0c7.95,2.91,15.89,5.58,23.82,8.19v.06q-3,5.82-6.08,11.5Zm-24.94-6.48c8.32,2.27,16.64,4.35,25,6.37,2-3.76,4-7.55,6-11.41-7.9-2.59-15.81-5.26-23.74-8.15Z" style="fill:#fdfeff;opacity:0.1"></path><g style="opacity:0.1"><path d="M247.38,156.25q-3-.74-5.91-1.53c1.77.45,3.55.88,5.31,1.31Z" style="fill:#fdfeff"></path><path d="M255.18,158.94l-1.59-.36c-2.09-.49-4.17-1-6.26-1.51s-4.17-1.06-6.26-1.62c2.1.53,4.2,1,6.29,1.55s4.19,1,6.28,1.49l.72.17Z" style="fill:#fdfeff"></path><path d="M262.64,161.44l-3.18-.69c-2.09-.47-4.18-.94-6.27-1.43s-4.17-1-6.26-1.52-4.17-1.06-6.25-1.62l6.29,1.56q3.14.76,6.27,1.49c2.08.5,4.17,1,6.25,1.45l2.73.62Z" style="fill:#fdfeff"></path><path d="M265.33,162.86l-6.24-1.43c-2.08-.47-4.17-1-6.25-1.46l-6.27-1.5c-2.1-.51-4.19-1-6.29-1.57,2.08.56,4.17,1.11,6.25,1.63l6.26,1.53q3.14.74,6.27,1.44T265.33,162.86Z" style="fill:#fdfeff"></path><path d="M264.93,163.62l-6.23-1.44c-2.09-.48-4.17-1-6.26-1.47s-4.18-1-6.27-1.51l-6.29-1.57c2.08.56,4.17,1.11,6.26,1.63s4.17,1,6.26,1.54l6.26,1.45C260.75,162.72,262.84,163.17,264.93,163.62Z" style="fill:#fdfeff"></path><path d="M264.53,164.38l-6.23-1.45c-2.09-.48-4.17-1-6.26-1.48s-4.18-1-6.27-1.52-4.19-1-6.29-1.58c2.09.57,4.17,1.11,6.26,1.64s4.17,1,6.26,1.55l6.26,1.46Q261.4,163.7,264.53,164.38Z" style="fill:#fdfeff"></path><path d="M264.14,165.14l-6.24-1.46c-2.08-.49-4.17-1-6.25-1.49l-6.28-1.53-6.28-1.59q3.12.85,6.25,1.65c2.09.53,4.17,1.05,6.26,1.55l6.27,1.47C260,164.22,262.05,164.68,264.14,165.14Z" style="fill:#fdfeff"></path><path d="M263.74,165.89q-3.12-.72-6.24-1.47c-2.08-.49-4.17-1-6.25-1.49s-4.18-1-6.27-1.54-4.19-1-6.29-1.59c2.08.57,4.17,1.12,6.25,1.65L251.2,163c2.09.5,4.18,1,6.27,1.48S261.65,165.44,263.74,165.89Z" style="fill:#fdfeff"></path><path d="M263.34,166.65l-6.24-1.48q-3.12-.73-6.25-1.51t-6.27-1.54l-6.29-1.6c2.08.57,4.17,1.13,6.25,1.66s4.18,1.06,6.26,1.57,4.18,1,6.27,1.48S261.25,166.19,263.34,166.65Z" style="fill:#fdfeff"></path><path d="M262.94,167.4l-6.23-1.49c-2.09-.49-4.17-1-6.26-1.51s-4.18-1-6.27-1.55l-6.28-1.61c2.08.58,4.16,1.13,6.25,1.67s4.17,1.06,6.26,1.57,4.17,1,6.26,1.5S260.85,166.94,262.94,167.4Z" style="fill:#fdfeff"></path><path d="M262.55,168.16l-6.24-1.5-6.26-1.52q-3.13-.76-6.27-1.57c-2.09-.53-4.18-1.06-6.28-1.61q3.12.87,6.25,1.68c2.09.54,4.17,1.06,6.26,1.58l6.26,1.5Q259.41,167.46,262.55,168.16Z" style="fill:#fdfeff"></path><path d="M262.15,168.91l-6.24-1.51c-2.08-.5-4.17-1-6.25-1.53s-4.18-1-6.27-1.57l-6.29-1.62c2.08.58,4.17,1.14,6.25,1.68l6.26,1.59c2.09.51,4.18,1,6.27,1.51S260.06,168.44,262.15,168.91Z" style="fill:#fdfeff"></path><path d="M261.75,169.66l-6.24-1.52c-2.08-.5-4.17-1-6.25-1.54s-4.18-1-6.27-1.57l-6.29-1.62q3.13.87,6.25,1.68l6.26,1.6c2.09.51,4.18,1,6.27,1.51S259.66,169.19,261.75,169.66Z" style="fill:#fdfeff"></path><path d="M261.35,170.41l-6.23-1.53-6.26-1.54-6.27-1.59-6.28-1.62q3.12.87,6.25,1.69l6.26,1.6,6.26,1.53Z" style="fill:#fdfeff"></path><path d="M261,171.16l-6.24-1.54-6.26-1.55c-2.09-.52-4.17-1-6.27-1.59l-6.28-1.63c2.08.58,4.16,1.15,6.25,1.69s4.17,1.08,6.26,1.61l6.26,1.53Q257.81,170.45,261,171.16Z" style="fill:#fdfeff"></path><path d="M260.56,171.91l-6.24-1.55c-2.08-.51-4.17-1-6.25-1.56l-6.27-1.59-6.29-1.64q3.13.87,6.25,1.7c2.09.55,4.18,1.08,6.26,1.61s4.18,1,6.27,1.54S258.47,171.42,260.56,171.91Z" style="fill:#fdfeff"></path><path d="M260.16,172.65l-6.24-1.55-6.25-1.57c-2.09-.52-4.18-1.06-6.27-1.6l-6.28-1.64q3.12.87,6.25,1.7c2.08.55,4.17,1.09,6.25,1.62s4.18,1,6.27,1.55S258.07,172.16,260.16,172.65Z" style="fill:#fdfeff"></path><path d="M259.76,173.4l-6.23-1.57c-2.09-.51-4.17-1-6.26-1.57l-6.27-1.6L234.72,167q3.12.88,6.25,1.71c2.09.55,4.17,1.09,6.26,1.62s4.17,1,6.26,1.56Z" style="fill:#fdfeff"></path></g><path d="M268.42,163.4c-8.88-2.91-17.78-5.87-26.7-9.13l0-.06.92-1.67.07,0c8.92,3.24,17.83,6.17,26.71,9v.06l-.91,1.77Zm-26.6-9.21c8.89,3.25,17.77,6.2,26.62,9.1.28-.56.57-1.11.86-1.67-8.85-2.86-17.73-5.78-26.62-9Z" style="fill:#fdfeff"></path><path d="M265.05,163.41l0-.06.5-.95.08,0,2.88.94-.05.1Zm.53-.94c-.14.28-.29.56-.44.84h3Z" style="fill:#fdfeff"></path><path d="M258.22,169.18c-4-1-8-1.93-12-2.94l0-.06c1.08-2,2.15-4,3.23-6l.07,0q6,1.47,12,2.81l0,.06-3.23,6.08Zm-11.9-3q6,1.5,11.91,2.91c1.06-2,2.12-4,3.18-6-4-.9-7.94-1.82-11.92-2.79Q247.92,163.24,246.32,166.16Z" style="fill:#fdfeff"></path><path d="M258,168.56l-3.39-.81,0-.06,2.68-5,.07,0,3.39.77,0,.06-2.68,5.05Zm-3.29-.9,3.29.79q1.32-2.46,2.63-4.95l-3.29-.75Z" style="fill:#fdfeff"></path><path d="M254.19,167.64l-3.39-.83v-.06l2.68-5,.07,0,3.39.79,0,.06c-.9,1.68-1.79,3.35-2.69,5Zm-3.29-.92,3.3.81c.88-1.63,1.75-3.27,2.63-4.91l-3.3-.77Z" style="fill:#fdfeff"></path><path d="M250.35,166.7l-3.39-.85,0-.06c.89-1.64,1.79-3.28,2.68-4.94l.07,0,3.39.82,0,.06-2.68,5Zm-3.3-.93,3.31.82,2.63-4.87-3.31-.8Q248.38,163.35,247.05,165.77Z" style="fill:#fdfeff"></path><path d="M239.58,169l-4-1.08v-.06c1.77-3.23,3.56-6.47,5.34-9.73l.07,0,4,1,0,.06q-2.67,4.91-5.35,9.77Zm-3.91-1.16,3.92,1.05,5.3-9.68-3.93-1C239.2,161.38,237.43,164.58,235.67,167.79Z" style="fill:#fdfeff"></path><path d="M238.83,163.88l-.74-.2,0-.06.12-.22.07,0,.75.19,0,.06-.12.22Zm-.64-.28.65.17.07-.12-.65-.18Z" style="fill:#fdfeff"></path><path d="M241.58,164.1l-3-.78,0-.06,2.5-4.55.07,0,3,.76,0,.06q-1.25,2.3-2.5,4.57Zm-2.87-.87,2.88.76,2.45-4.47-2.88-.74Z" style="fill:#fdfeff"></path><path d="M239.38,168.23l-3-.79,0-.06,1.94-3.52.07,0,3,.78v.06l-1.93,3.54Zm-2.87-.87,2.87.76,1.89-3.43-2.88-.76Z" style="fill:#fdfeff"></path><path d="M234.42,167.56c-7.84-2.15-15.68-4.47-23.51-7.08v-.07q3.78-6.9,7.58-13.68l.06,0q13.49.84,27,.52l0,.06c-3.71,6.82-7.41,13.54-11.1,20.25ZM211,160.4c7.8,2.6,15.61,4.91,23.42,7,3.67-6.67,7.35-13.36,11-20.14q-13.47.31-26.92-.52C216,151.3,213.52,155.82,211,160.4Z" style="fill:#fdfeff"></path><path d="M214.91,146.55l0-.06.94-1.68.06,0a308,308,0,0,0,33.56.61l0,.06-.94,1.74-.06,0A321.13,321.13,0,0,1,214.91,146.55Zm1-1.67-.88,1.58a319,319,0,0,0,33.45.67c.3-.54.59-1.09.89-1.64A308.62,308.62,0,0,1,215.89,144.88Z" style="fill:#fdfeff"></path><path d="M217.64,148.31l-2.75-1.77.05-.09q1.8.13,3.6.24l0,.07-.85,1.52Zm-2.51-1.74,2.53,1.62c.26-.47.52-.94.79-1.4Z" style="fill:#fdfeff"></path><path d="M217.64,148.31l-2.75-1.77.05-.09q1.8.13,3.6.24l0,.07-.85,1.52Zm-2.51-1.74,2.53,1.62c.26-.47.52-.94.79-1.4Z" style="fill:#fdfeff;opacity:0.30000000000000004"></path><path d="M239,157.64l-4.81-1.3,0-.06c1.48-2.69,3-5.37,4.45-8.07l.06,0c1.84,0,3.68,0,5.51-.06l0,.06q-2.58,4.74-5.15,9.42Zm-4.71-1.39c1.57.44,3.14.86,4.71,1.28q2.55-4.64,5.1-9.31c-1.8,0-3.61.05-5.41.06Z" style="fill:#fdfeff"></path><path d="M234.12,166.51q-2.4-.66-4.8-1.35l0-.06,4.41-8,.07,0c1.6.45,3.2.88,4.8,1.31l0,.06-4.41,8Zm-4.71-1.43,4.71,1.32,4.37-7.93c-1.57-.42-3.15-.84-4.72-1.28Q231.59,161.14,229.41,165.08Z" style="fill:#fdfeff"></path><path d="M233.33,156.09q-2.42-.66-4.81-1.37l0-.06,3.61-6.5.06,0c1.84,0,3.67,0,5.51.06l0,.06q-2.16,3.91-4.31,7.82Zm-4.71-1.45q2.35.69,4.71,1.35l4.26-7.71c-1.8,0-3.61,0-5.41-.06Q230.4,151.43,228.62,154.64Z" style="fill:#fdfeff"></path><path d="M228.45,164.92q-2.4-.69-4.8-1.41l0-.06,4.41-8,.07,0,4.8,1.38,0,.06-4.41,8Zm-4.7-1.49q2.35.7,4.71,1.38,2.17-3.94,4.36-7.89c-1.57-.44-3.15-.89-4.72-1.35Z" style="fill:#fdfeff"></path><path d="M227.66,154.46c-1.6-.47-3.21-1-4.81-1.46v-.06l2.76-5,.06,0c1.84.07,3.67.12,5.51.16l0,.06-3.47,6.27ZM223,152.92q2.36.74,4.71,1.43l3.42-6.15c-1.8,0-3.61-.09-5.41-.16C224.76,149.66,223.86,151.29,223,152.92Z" style="fill:#fdfeff"></path><path d="M222.79,163.26l-4.8-1.48,0-.06c1.47-2.66,2.94-5.3,4.4-7.95l.07,0q2.4.75,4.81,1.46v.06l-4.4,8Zm-4.7-1.56c1.57.49,3.14,1,4.71,1.45l4.35-7.87q-2.35-.69-4.71-1.43Z" style="fill:#fdfeff"></path><path d="M222,152.73q-2.4-.75-4.8-1.55l0-.06c.64-1.16,1.29-2.31,1.93-3.46l.06,0c1.83.11,3.67.2,5.51.28l0,.06-2.64,4.74Zm-4.7-1.63q2.36.78,4.71,1.52l2.57-4.63q-2.7-.11-5.4-.27C218.54,148.85,217.91,150,217.29,151.1Z" style="fill:#fdfeff"></path><path d="M217.13,161.51c-1.6-.51-3.2-1-4.8-1.55v-.07q2.19-4,4.39-7.94l.07,0c1.6.53,3.2,1,4.8,1.55l0,.06q-2.21,4-4.4,7.95Zm-4.7-1.63c1.57.52,3.14,1,4.71,1.52q2.16-3.94,4.34-7.85c-1.57-.5-3.14-1-4.71-1.52Q214.59,155.93,212.43,159.88Z" style="fill:#fdfeff"></path><path d="M261.74,177c-18.46-4.55-37-9.22-55.48-15.58l0-.07.57-1,.07,0c18.47,6.38,37,11,55.48,15.55l0,.06-.57,1.08Zm-55.39-15.66c18.44,6.35,37,11,55.4,15.55l.52-1c-18.43-4.51-37-9.16-55.4-15.52Z" style="fill:#fdfeff"></path><path d="M261,175.56c-17.61-4.31-35.3-8.79-52.92-14.8l0-.06.57-1,.07,0c17.62,6,35.32,10.48,52.92,14.75l0,.06-.57,1.08Zm-52.82-14.88c17.58,6,35.25,10.47,52.82,14.77l.53-1c-17.58-4.27-35.25-8.73-52.83-14.73C208.55,160.05,208.38,160.37,208.21,160.68Z" style="fill:#fdfeff"></path><path d="M261,175.56c-17.61-4.31-35.3-8.79-52.92-14.8l0-.06.29-.52.07,0c17.57,6.1,35.22,10.65,52.77,15l0,.06-.14.27Zm-52.82-14.88c17.58,6,35.25,10.47,52.82,14.77l.1-.17c-17.53-4.39-35.15-8.93-52.69-15Z" style="fill:#fdfeff"></path><path d="M204.94,163.73l-.09,0,.64-1.19.09,0Z" style="fill:#fdfeff"></path><path d="M260.53,179.41l-.09,0c.21-.41.43-.81.65-1.22l.09,0Z" style="fill:#fdfeff"></path><path d="M260.78,178.84c-18.5-4.63-37.09-9.32-55.59-15.67l.05-.1c18.5,6.36,37.09,11.05,55.59,15.67Z" style="fill:#fdfeff"></path><path d="M252,146l-1.11-.25,0-.1,1.11.25Z" style="fill:#fdfeff"></path><path d="M247.77,153.82l-1.11-.27.05-.1,1.11.27Z" style="fill:#fdfeff"></path><path d="M247.28,153.65l-.09,0q2.1-3.87,4.21-7.79l.09,0Q249.38,149.77,247.28,153.65Z" style="fill:#fdfeff"></path><path d="M214.51,144.41,213.4,144l0-.09,1.11.39Z" style="fill:#fdfeff"></path><path d="M205.29,161.09l-1.1-.39.05-.09,1.11.38Z" style="fill:#fdfeff"></path><path d="M204.81,160.87l-.09,0q4.6-8.45,9.21-16.67l.09,0C211,149.69,207.88,155.23,204.81,160.87Z" style="fill:#fdfeff"></path><path d="M184.9,155.32s5.26-13.95,9-15.28,19.56-1.14,19.71,2.28c.2,4.41-8.94,6.1-13.53,6.34,0,0,.47,10.2-5.83,12.83S184.9,155.32,184.9,155.32Z" style="fill:#d3766a"></path><path d="M213.28,143.55c-2.72,4.15-8.76,4.08-13.2,4.65a.4.4,0,0,0-.33.58c-.09,4.29-.35,9.39-4.12,11.9a.1.1,0,0,0,.1.18c4.41-2.15,5.21-7.4,4.92-11.73,4.56-.52,10.62-.71,12.67-5.56C213.33,143.54,213.3,143.52,213.28,143.55Z" style="fill:#263238"></path><path d="M159.88,152.41c.31,1,5.66,7.28,10.3,6.73,1.52-.18.89-8.49.89-8.49l.1-.62,1.31-8.73-10.56-5.76-1.52-.75s-.2,2.41-.42,5.41l0,.43a4.22,4.22,0,0,0,0,.49c0,.45-.08.91-.11,1.37s0,.68-.06,1,0,.72-.05,1.09A59.48,59.48,0,0,0,159.88,152.41Z" style="fill:#d3766a"></path><path d="M160,140.2A17.7,17.7,0,0,0,171.17,150l1.31-8.73-10.56-5.76-1.52-.75S160.2,137.2,160,140.2Z" style="fill:#263238"></path><path d="M184.81,128.33c1.47,15.42-7.55,18.19-10.93,18.35-3,.15-13.34.87-16.4-14.32s3.66-20.75,10.53-21.76S183.34,112.9,184.81,128.33Z" style="fill:#d3766a"></path><g style="opacity:0.1"><path d="M176.35,122.39a11.36,11.36,0,0,0,1.81-.29c.59-.16,1.15-.45,1.75-.6a9.56,9.56,0,0,1,3.5,0c.11,0,.11.08,0,.07a8.36,8.36,0,0,0-3.65.34,10.55,10.55,0,0,1-2.93.76,10.56,10.56,0,0,0-6.37,2.26,0,0,0,1,1,0,0A10.64,10.64,0,0,1,176.35,122.39Z"></path><path d="M175.91,120.75a12.32,12.32,0,0,0,1.72-.27c.57-.16,1.09-.43,1.66-.58a9.48,9.48,0,0,1,3.32-.05c.1,0,.1.08,0,.07a8,8,0,0,0-3.46.33,10.27,10.27,0,0,1-2.77.71,10,10,0,0,0-6,2.15s0,0,0,0A10.1,10.1,0,0,1,175.91,120.75Z"></path></g><path d="M183.73,125.07c-.36,0-.7-.13-1-.2a1.76,1.76,0,0,1-1-.4.55.55,0,0,1,0-.68,1.38,1.38,0,0,1,1.34-.35,2,2,0,0,1,1.27.68A.59.59,0,0,1,183.73,125.07Z" style="fill:#a6a6a6"></path><path d="M173.74,125.86a9.26,9.26,0,0,0,1-.25,1.67,1.67,0,0,0,1-.45.56.56,0,0,0,0-.67,1.36,1.36,0,0,0-1.36-.29,2.05,2.05,0,0,0-1.24.74A.59.59,0,0,0,173.74,125.86Z" style="fill:#a6a6a6"></path><path d="M176.12,129.62s-.08,0-.08.09c.09,1.06,0,2.28-.93,2.67,0,0,0,.07,0,.06C176.28,132.22,176.37,130.6,176.12,129.62Z" style="fill:#263238"></path><path d="M175.12,128.56c-1.7-.05-1.67,3.36-.09,3.4S176.55,128.6,175.12,128.56Z" style="fill:#263238"></path><path d="M174.46,128.75c-.3.19-.59.54-.94.57s-.74-.3-1-.64c0,0-.06,0-.06,0,0,.65.25,1.32,1,1.41s1.09-.5,1.24-1.16C174.68,128.85,174.58,128.67,174.46,128.75Z" style="fill:#263238"></path><path d="M181.78,129s.09.05.08.09c0,1.06.11,2.27,1.07,2.62a0,0,0,0,1,0,.06C181.75,131.58,181.58,130,181.78,129Z" style="fill:#263238"></path><path d="M182.72,127.87c1.7-.13,1.84,3.28.27,3.4S181.3,128,182.72,127.87Z" style="fill:#263238"></path><path d="M183.44,128.07c.28.17.56.49.88.49s.63-.37.86-.73c0,0,0,0,0,0,.05.65-.14,1.33-.76,1.48s-1-.4-1.19-1C183.25,128.19,183.33,128,183.44,128.07Z" style="fill:#263238"></path><path d="M176.18,137.76c.24.26.48.61.86.65a2.64,2.64,0,0,0,1.14-.22s.07,0,0,.05a1.43,1.43,0,0,1-1.36.53,1.12,1.12,0,0,1-.8-1A.06.06,0,0,1,176.18,137.76Z" style="fill:#263238"></path><path d="M180.51,133.86s.25,1.57.26,2.31c0,.07-.18.11-.43.13h0a3.54,3.54,0,0,1-3.46-1.25.08.08,0,0,1,.11-.1,5.36,5.36,0,0,0,3.25.85c0-.2-.52-2.67-.4-2.68a6.18,6.18,0,0,1,1.69.34c-.42-3.29-1.38-6.48-1.75-9.76a.1.1,0,0,1,.19,0,54.16,54.16,0,0,1,2.34,10.43C182.35,134.5,180.81,134,180.51,133.86Z" style="fill:#263238"></path><path d="M180.27,135.73a4.35,4.35,0,0,1-1.53,1.56,1.92,1.92,0,0,1-1.16.23c-.88-.1-1-.88-.94-1.56a4.5,4.5,0,0,1,.24-1.07A5.65,5.65,0,0,0,180.27,135.73Z" style="fill:#263238"></path><path d="M178.74,137.29a1.92,1.92,0,0,1-1.16.23c-.88-.1-1-.88-.94-1.56A2,2,0,0,1,178.74,137.29Z" style="fill:#ff9bbc"></path><path d="M158,134.13a6.4,6.4,0,0,0,3.41-5.35,16.88,16.88,0,0,0,6.65-5.73c-.1.32-.77,2.67-1.15,3.85,9.82-2.18,12.62-9.85,12.62-9.85a17,17,0,0,1,4.53,6.12s-.19-6-3.39-10c-10.79-13.45-22.67.94-22.67.94s-4,2.26-4.52,6.3C152.38,128.24,158,134.13,158,134.13Z" style="fill:#a6a6a6"></path><path d="M174.33,125a18.13,18.13,0,0,1-5,2s0,0,0,0a15.53,15.53,0,0,0,7.11-4.63,14.28,14.28,0,0,0,2-3.06,10,10,0,0,0,1.19-3.81c0-.1.16-.09.15,0a11.85,11.85,0,0,1-.65,3.92,10.77,10.77,0,0,1-2.08,3.35,12.6,12.6,0,0,1-2.73,2.21" style="fill:#a6a6a6"></path><path d="M182.29,116.18s-6.33-16.4-21-10.88-8.61,22-8.61,22Z" style="fill:#F0B400"></path><rect x="150.5" y="120.5" width="33.98" height="2.49" transform="translate(367.14 176.66) rotate(159.37)" style="fill:#F0B400"></rect><polygon points="170.88 119.15 177.5 116.65 166.58 102.72 159.96 105.21 170.88 119.15" style="fill:#F0B400"></polygon><polygon points="170.88 119.15 177.5 116.65 166.58 102.72 159.96 105.21 170.88 119.15" style="opacity:0.1"></polygon><path d="M160.24,133s-3.94-4.4-6-2.93,1.33,8.11,4,8.75a2.62,2.62,0,0,0,3.31-1.82Z" style="fill:#d3766a"></path><path d="M155.28,132s0,.06,0,.07c1.89.51,3,2.06,3.9,3.7a1.44,1.44,0,0,0-2.19-.13s0,.1.06.09a1.61,1.61,0,0,1,1.83.34,8.1,8.1,0,0,1,1,1.32c.11.15.39,0,.3-.14l0,0C159.93,134.86,157.76,131.88,155.28,132Z" style="fill:#263238"></path><circle cx="160.06" cy="138.93" r="1.14" style="fill:#fff"></circle><path d="M186.58,196.39l2.29,18.4s-40.31,3.69-55.65-.14c0,0,5.16-43.67,19.11-58.82,7-7.58,15.17-7,20.4-1.72,1.32,1.34,15.29,19.57,17,27.53C191.13,188.66,186.58,196.39,186.58,196.39Z" style="fill:#F0B400"></path><path d="M174.73,173.2a1,1,0,0,1-.54-.18,1,1,0,0,1-.48-.88,1.32,1.32,0,0,0-.84-1.21,2.61,2.61,0,0,0-1.37.07c.21.06.43.09.65.13a1.15,1.15,0,0,1,.55.16,1,1,0,0,1,.5.86,1.33,1.33,0,0,0,.81,1.23,2.34,2.34,0,0,0,1.37-.06Zm-11-18.93a1.06,1.06,0,0,1-1-1.06,1.34,1.34,0,0,0-.85-1.21,2.61,2.61,0,0,0-1.37.07c.21.06.43.09.65.13a1.15,1.15,0,0,1,.55.16,1,1,0,0,1,.5.86,1.33,1.33,0,0,0,.81,1.23,2.34,2.34,0,0,0,1.37,0C164.18,154.34,164,154.31,163.75,154.27Zm-6.05,36.9a1.06,1.06,0,0,1-1-1.06,1.34,1.34,0,0,0-.85-1.21,2.61,2.61,0,0,0-1.37.07c.22.06.43.09.65.13a1.15,1.15,0,0,1,.55.16,1,1,0,0,1,.5.86,1.35,1.35,0,0,0,.81,1.23,2.34,2.34,0,0,0,1.37-.06Zm-18.8,12.94a1.11,1.11,0,0,1-.54-.17,1.08,1.08,0,0,1-.48-.89,1.32,1.32,0,0,0-.84-1.21,2.51,2.51,0,0,0-1.37.08c.21.05.43.08.65.12a1.15,1.15,0,0,1,.55.16,1,1,0,0,1,.5.86,1.33,1.33,0,0,0,.81,1.23,2.34,2.34,0,0,0,1.37,0C139.33,204.18,139.12,204.15,138.9,204.11Zm31.82,5.27a1,1,0,0,1-.54-.18,1,1,0,0,1-.47-.88,1.32,1.32,0,0,0-.85-1.21,2.61,2.61,0,0,0-1.37.07c.21.06.43.08.65.13a1,1,0,0,1,.55.16,1,1,0,0,1,.5.85,1.32,1.32,0,0,0,.81,1.23,2.34,2.34,0,0,0,1.37-.05C171.15,209.44,170.94,209.42,170.72,209.38Zm-23.36,3.84a1.06,1.06,0,0,1-1-1.06,1.33,1.33,0,0,0-.85-1.21,2.61,2.61,0,0,0-1.37.07c.21.06.43.09.65.13a1.15,1.15,0,0,1,.55.16,1,1,0,0,1,.5.86,1.31,1.31,0,0,0,.81,1.22,2.27,2.27,0,0,0,1.37,0Zm34.11-21.53a1.05,1.05,0,0,1-.54-.18,1,1,0,0,1-.47-.88,1.31,1.31,0,0,0-.85-1.21,2.61,2.61,0,0,0-1.37.07c.22.06.43.08.65.13a1.11,1.11,0,0,1,.56.16,1,1,0,0,1,.5.86,1.31,1.31,0,0,0,.8,1.22,2.26,2.26,0,0,0,1.37-.05C181.91,191.75,181.69,191.73,181.47,191.69Zm-34.11-21.62a1.06,1.06,0,0,1-1-1.06,1.34,1.34,0,0,0-.85-1.21,1.29,1.29,0,0,0-.5-.07l-.12.28a1,1,0,0,1,.45.15,1,1,0,0,1,.5.86,1.33,1.33,0,0,0,.81,1.23,2.34,2.34,0,0,0,1.37-.05C147.79,170.14,147.58,170.11,147.36,170.07Zm15.55-6a1.15,1.15,0,0,1-.5.28,1,1,0,0,1-1-.25,1.3,1.3,0,0,0-1.43-.3,2.36,2.36,0,0,0-.94,1,5.28,5.28,0,0,0,.55-.37,1.13,1.13,0,0,1,.51-.26,1.06,1.06,0,0,1,1,.3,1.31,1.31,0,0,0,1.45.25c.49-.24.66-.66.92-1C163.26,163.79,163.09,163.93,162.91,164.05Zm19.56,3.44c-.11.14-.19.29-.29.42a3.77,3.77,0,0,0,.39-.26A.86.86,0,0,0,182.47,167.49ZM170,194.25c-.06.21-.08.43-.12.65a1.18,1.18,0,0,1-.16.55,1,1,0,0,1-.86.5,1.31,1.31,0,0,0-1.23.81,2.34,2.34,0,0,0,0,1.37c.06-.22.08-.44.13-.65a1,1,0,0,1,.17-.54,1,1,0,0,1,.89-.48,1.29,1.29,0,0,0,1.2-.85A2.48,2.48,0,0,0,170,194.25Zm4.77-37.68h0c-.05.21-.08.42-.12.62a1.19,1.19,0,0,1-.16.56,1,1,0,0,1-.86.5,1.32,1.32,0,0,0-1.23.81,2.35,2.35,0,0,0,0,1.37c.06-.22.09-.44.13-.65a1.19,1.19,0,0,1,.17-.55,1,1,0,0,1,.89-.47,1.31,1.31,0,0,0,1.21-.85A2.48,2.48,0,0,0,174.72,156.57Zm-26.33,38.52c-.06.22-.08.43-.13.65a1,1,0,0,1-.16.55,1,1,0,0,1-.85.5,1.34,1.34,0,0,0-1.23.81,2.34,2.34,0,0,0,0,1.37c.06-.22.08-.43.12-.65a1,1,0,0,1,.18-.54,1,1,0,0,1,.88-.47,1.31,1.31,0,0,0,1.21-.85A2.61,2.61,0,0,0,148.39,195.09Zm2.75-37.86a1.3,1.3,0,0,0,.82-.78.8.8,0,0,0,0-.26C151.71,156.52,151.42,156.87,151.14,157.23ZM158.69,173c-.06.22-.08.43-.13.65a1,1,0,0,1-.16.55,1,1,0,0,1-.86.5,1.34,1.34,0,0,0-1.22.81,2.26,2.26,0,0,0,.05,1.37c.06-.22.08-.43.12-.65a1.06,1.06,0,0,1,1.06-1,1.31,1.31,0,0,0,1.21-.85A2.61,2.61,0,0,0,158.69,173Zm-18,14.25c0,.21-.08.43-.12.65a1.15,1.15,0,0,1-.16.55,1,1,0,0,1-.86.5,1.32,1.32,0,0,0-1.23.81,2.34,2.34,0,0,0,0,1.37c.06-.22.09-.44.13-.65a1.11,1.11,0,0,1,.17-.54,1.08,1.08,0,0,1,.89-.48,1.31,1.31,0,0,0,1.21-.85A2.48,2.48,0,0,0,140.67,187.25Zm20.3,29a.13.13,0,0,0,0,.06h0S161,216.29,161,216.27Zm8.94-34.39a1.13,1.13,0,0,1-.51.26,1,1,0,0,1-1-.29,1.33,1.33,0,0,0-1.46-.26,2.65,2.65,0,0,0-.91,1c.19-.11.36-.25.54-.37a1.13,1.13,0,0,1,.51-.28,1,1,0,0,1,1,.26,1.33,1.33,0,0,0,1.44.29c.5-.22.68-.65.93-1C170.27,181.62,170.1,181.76,169.91,181.88Zm-35,32a1.13,1.13,0,0,1-.51.26,1.06,1.06,0,0,1-1-.3.18.18,0,0,0-.07-.05c0,.25-.06.45-.08.59a1.29,1.29,0,0,0,1.23.13,2.36,2.36,0,0,0,.94-1A5.28,5.28,0,0,0,134.87,213.88ZM158,205.32a1.13,1.13,0,0,1-.51.26,1,1,0,0,1-1-.29,1.31,1.31,0,0,0-1.45-.26,2.68,2.68,0,0,0-.92,1c.2-.11.37-.25.55-.37a1.13,1.13,0,0,1,.51-.28,1,1,0,0,1,1,.26,1.33,1.33,0,0,0,1.44.29c.5-.22.68-.65.93-1C158.37,205.06,158.2,205.2,158,205.32Zm25.37-1.84a1.13,1.13,0,0,1-.51.26,1,1,0,0,1-1-.29,1.31,1.31,0,0,0-1.45-.26,2.68,2.68,0,0,0-.92,1c.2-.11.37-.25.55-.37a1.13,1.13,0,0,1,.51-.28,1,1,0,0,1,1,.26,1.33,1.33,0,0,0,1.44.29c.5-.22.68-.65.93-1C183.74,203.22,183.56,203.36,183.38,203.48Zm-34.51-21a1.05,1.05,0,0,1-.5.26,1,1,0,0,1-1-.29,1.32,1.32,0,0,0-1.46-.25,2.56,2.56,0,0,0-.91,1,6.45,6.45,0,0,0,.54-.37,1.23,1.23,0,0,1,.51-.28,1,1,0,0,1,1,.26,1.33,1.33,0,0,0,1.44.3c.5-.22.68-.66.93-1C149.23,182.17,149.06,182.31,148.87,182.43Zm40-3.41a1.3,1.3,0,0,1-1.19.82,1,1,0,0,0-.89.48,1.11,1.11,0,0,0-.17.54c-.05.21-.07.43-.13.65a2.34,2.34,0,0,1,0-1.37,1.32,1.32,0,0,1,1.23-.81,1,1,0,0,0,.86-.5,1.07,1.07,0,0,0,.13-.31h0Zm-10.14,36.53a1,1,0,0,1,.86-.46,1.3,1.3,0,0,0,1.21-.85,2.58,2.58,0,0,0-.07-1.36c-.06.21-.08.43-.13.65a1,1,0,0,1-.16.55,1,1,0,0,1-.86.5,1.31,1.31,0,0,0-1.22.81.77.77,0,0,0,0,.19Z" style="fill:#fff"></path><path d="M163.63,164.33c4.8,6.13,27,29.25,36.36,31.68,14.69,3.81,36.08,3,45.69,2.87,5.21,0-.28-32.77-5.81-30.88-7.21,2.46-29.79,4.52-32.52,4.63s-21.83-10.9-34.63-17.14C162,150.26,157,155.83,163.63,164.33Z" style="fill:#d3766a"></path><path d="M275.68,167.74a4.38,4.38,0,0,1-1.05,4.9,6.5,6.5,0,0,1,2.67,3.55c.66,2.6-3.12,4.78-3.12,4.78a8.12,8.12,0,0,1,2.22,4.19c.38,2.55-3.12,5.3-3.12,5.3a7.08,7.08,0,0,1-.37,4.91c-2.06,4-8.94,4.63-13.32,5.06s-17.18-2.46-19.67-2.76l-4.6-26.79s11-9.13,25.9-8.53C265.61,162.53,274.23,164.63,275.68,167.74Z" style="fill:#d3766a"></path><path d="M274.39,172.21c-4.62-1.32-9.38-1.21-14.14-1.36-.11,0-.11.16,0,.16,4.73.1,9.38,1.14,14.1,1.43A.12.12,0,0,0,274.39,172.21Z" style="fill:#263238"></path><path d="M274.05,180.62a12.33,12.33,0,0,0-3.27-.17c-1.16,0-2.32.06-3.48.11-2.33.12-4.65.29-7,.53-.1,0-.11.17,0,.16,2.31-.11,4.63-.19,6.94-.2q1.74,0,3.48,0a15,15,0,0,0,3.28-.12A.16.16,0,0,0,274.05,180.62Z" style="fill:#263238"></path><path d="M273.18,190.46a8.6,8.6,0,0,0-2.95,0l-3.18.21c-2.11.12-4.23.25-6.35.3-.1,0-.11.17,0,.16,2.15,0,4.31,0,6.46-.11l3.17-.11a8.33,8.33,0,0,0,2.86-.35A.06.06,0,0,0,273.18,190.46Z" style="fill:#263238"></path><path d="M233.87,169,238,201.22s-34.29-2-39.78-4.53-22.83-16.4-33.56-30.13-.8-17.09,9.43-11.1,32,16.39,32.92,16.3Z" style="fill:#F0B400"></path><path d="M217.55,176.72a1.18,1.18,0,0,1-.51.26,1.06,1.06,0,0,1-1-.3,1.31,1.31,0,0,0-1.45-.25,2.48,2.48,0,0,0-.92,1c.19-.11.36-.25.55-.37a1.1,1.1,0,0,1,.5-.28,1,1,0,0,1,1,.25,1.31,1.31,0,0,0,1.44.3,2.36,2.36,0,0,0,.94-1A5.28,5.28,0,0,0,217.55,176.72ZM228.71,196a1.08,1.08,0,0,1-.51.26,1,1,0,0,1-1-.29,1.31,1.31,0,0,0-1.45-.25,2.52,2.52,0,0,0-.92,1c.19-.11.36-.24.55-.37a1.18,1.18,0,0,1,.5-.27,1,1,0,0,1,1,.25,1.33,1.33,0,0,0,1.44.3c.5-.22.69-.66.94-1C229.06,195.76,228.89,195.9,228.71,196Zm-30.07-7.59a1.18,1.18,0,0,1-.51.26,1.06,1.06,0,0,1-1-.3,1.32,1.32,0,0,0-1.46-.25,2.52,2.52,0,0,0-.91,1c.19-.11.36-.25.55-.37a1.1,1.1,0,0,1,.5-.28,1,1,0,0,1,1,.25,1.31,1.31,0,0,0,1.44.3c.5-.22.68-.65.93-1C199,188.17,198.82,188.3,198.64,188.43Zm30.77-9.54c0,.22-.08.44-.12.66a1.18,1.18,0,0,1-.16.55,1,1,0,0,1-.86.5,1.32,1.32,0,0,0-1.23.81,2.35,2.35,0,0,0,.05,1.37c.06-.22.09-.44.13-.65a1.09,1.09,0,0,1,.18-.55,1,1,0,0,1,.88-.47,1.31,1.31,0,0,0,1.21-.85A2.52,2.52,0,0,0,229.41,178.89Zm-40.61-1.26c-.06.21-.08.43-.12.65a1.18,1.18,0,0,1-.16.55,1,1,0,0,1-.86.5,1.32,1.32,0,0,0-1.23.81,2.34,2.34,0,0,0,0,1.37c.06-.22.08-.44.13-.65a1.11,1.11,0,0,1,.17-.54,1,1,0,0,1,.89-.48,1.29,1.29,0,0,0,1.2-.85A2.48,2.48,0,0,0,188.8,177.63Zm21.65,14.67c0,.22-.08.44-.12.66a1.18,1.18,0,0,1-.16.55,1,1,0,0,1-.86.5,1.32,1.32,0,0,0-1.23.81,2.35,2.35,0,0,0,0,1.37c.06-.22.09-.44.13-.65a1.19,1.19,0,0,1,.17-.55,1,1,0,0,1,.89-.47,1.31,1.31,0,0,0,1.21-.85A2.52,2.52,0,0,0,210.45,192.3Zm-12.3-23.76c-.06.22-.08.44-.13.65a1,1,0,0,1-.16.56,1,1,0,0,1-.85.5,1.32,1.32,0,0,0-1.23.8,2.38,2.38,0,0,0,.05,1.38c.06-.22.08-.44.12-.66a1.09,1.09,0,0,1,.18-.54,1,1,0,0,1,.89-.47,1.29,1.29,0,0,0,1.2-.85A2.62,2.62,0,0,0,198.15,168.54Zm-23.44-12c-.05.22-.08.44-.12.65a1.19,1.19,0,0,1-.16.56,1,1,0,0,1-.86.5,1.32,1.32,0,0,0-1.23.81,2.35,2.35,0,0,0,0,1.37c.06-.22.09-.44.13-.65a1.19,1.19,0,0,1,.17-.55,1,1,0,0,1,.89-.47,1.31,1.31,0,0,0,1.21-.85A2.52,2.52,0,0,0,174.71,156.53ZM186,167.18a1.1,1.1,0,0,1-.5.28,1,1,0,0,1-1-.26,1.33,1.33,0,0,0-1.44-.29,2.36,2.36,0,0,0-.94,1c.2-.11.37-.25.55-.37a1.18,1.18,0,0,1,.51-.26,1,1,0,0,1,1,.29,1.31,1.31,0,0,0,1.45.26,2.61,2.61,0,0,0,.92-1C186.38,166.92,186.21,167.06,186,167.18Zm-23.11-3.13,0,0,.15.23c.16-.2.28-.42.42-.62C163.26,163.79,163.09,163.93,162.91,164.05Zm55.62,24.62a1.19,1.19,0,0,1-.54-.17,1,1,0,0,1-.47-.89,1.29,1.29,0,0,0-.85-1.2,2.52,2.52,0,0,0-1.37.07c.22.06.44.08.65.12a1.19,1.19,0,0,1,.56.16,1,1,0,0,1,.5.86,1.32,1.32,0,0,0,.8,1.23,2.38,2.38,0,0,0,1.38,0C219,188.74,218.75,188.72,218.53,188.67Zm-54.78-34.4a1.06,1.06,0,0,1-1-1.06,1.49,1.49,0,0,0,0-.21l-.5.2v0a1.33,1.33,0,0,0,.81,1.23,2.34,2.34,0,0,0,1.37,0C164.18,154.34,164,154.31,163.75,154.27Zm62.3,16.47a1,1,0,0,1-.54-.18,1.09,1.09,0,0,1-.45-.66l-.51,0a1.28,1.28,0,0,0,.78,1,2.34,2.34,0,0,0,1.37,0C226.48,170.8,226.26,170.78,226.05,170.74ZM205,181a1.09,1.09,0,0,1-.55-.18A1,1,0,0,1,204,180a1.31,1.31,0,0,0-.85-1.21,2.52,2.52,0,0,0-1.37.08c.22.05.44.08.66.12a1.18,1.18,0,0,1,.55.16,1,1,0,0,1,.5.86,1.32,1.32,0,0,0,.81,1.23,2.34,2.34,0,0,0,1.37-.05C205.42,181.11,205.2,181.08,205,181Zm-30.26-7.84a1,1,0,0,1-.54-.18,1,1,0,0,1-.48-.88,1.32,1.32,0,0,0-.84-1.21,2.61,2.61,0,0,0-1.37.07c.21.06.43.09.65.13a1.15,1.15,0,0,1,.55.16,1,1,0,0,1,.5.86,1.33,1.33,0,0,0,.81,1.23,2.34,2.34,0,0,0,1.37-.06Z" style="fill:#fff"></path><path d="M191.16,192.11c-1.07-.92-4.52-4.11-5.4-4.89-1.79-1.58-3.59-3.16-5.37-4.76s-3.47-3.29-5.24-4.9-3.6-3.27-5.35-5c0,0-.05,0,0,0,1.58,1.74,3.16,3.46,4.79,5.15l-.2-.15c-.82-.59-1.68-1.11-2.53-1.63a0,0,0,1,0,0,0c.76.62,1.52,1.26,2.32,1.82.53.38,1.08.73,1.62,1.09,1.38,1.35,2.8,2.66,4.21,4,1.75,1.64,3.52,3.24,5.34,4.79.9.77,4.84,3.91,5.76,4.51C191.14,192.28,191.23,192.17,191.16,192.11Z" style="fill:#263238"></path><path d="M230.52,184.56c-.58-4.43-1.12-8.91-2-13.29,0-.07-.12-.05-.12,0,.23,4.51.78,9,1.31,13.53s1.17,8.88,2,13.29a.07.07,0,0,0,.14,0C231.55,193.56,231.12,189.05,230.52,184.56Z" style="fill:#263238"></path></g></svg>