<svg xmlns="http://www.w3.org/2000/svg" xmlns:xlink="http://www.w3.org/1999/xlink" viewBox="0 0 500 500"><defs><clipPath id="freepik--clip-path--inject-29"><path d="M144.71,242.63s16,47.24,19.13,68S100,386.92,100,386.92l-7.26-7.73s48.83-54.3,48.83-63.64-16.61-52-16.61-52S123,246.35,144.71,242.63Z" style="fill:#fff;opacity:0.2;isolation:isolate"></path></clipPath></defs><g id="freepik--background-complete--inject-29"><rect y="382.4" width="500" height="0.25" style="fill:#ebebeb"></rect><rect x="416.78" y="398.49" width="33.12" height="0.25" style="fill:#ebebeb"></rect><rect x="322.53" y="401.21" width="8.69" height="0.25" style="fill:#ebebeb"></rect><rect x="396.59" y="389.21" width="19.19" height="0.25" style="fill:#ebebeb"></rect><rect x="52.46" y="390.89" width="43.19" height="0.25" style="fill:#ebebeb"></rect><rect x="104.56" y="390.89" width="6.33" height="0.25" style="fill:#ebebeb"></rect><rect x="131.47" y="395.11" width="93.68" height="0.25" style="fill:#ebebeb"></rect><path d="M237,337.8H43.91a5.71,5.71,0,0,1-5.7-5.71V60.66A5.71,5.71,0,0,1,43.91,55H237a5.71,5.71,0,0,1,5.71,5.71V332.09A5.71,5.71,0,0,1,237,337.8ZM43.91,55.2a5.46,5.46,0,0,0-5.45,5.46V332.09a5.46,5.46,0,0,0,5.45,5.46H237a5.47,5.47,0,0,0,5.46-5.46V60.66A5.47,5.47,0,0,0,237,55.2Z" style="fill:#ebebeb"></path><path d="M453.31,337.8H260.21a5.72,5.72,0,0,1-5.71-5.71V60.66A5.72,5.72,0,0,1,260.21,55h193.1A5.71,5.71,0,0,1,459,60.66V332.09A5.71,5.71,0,0,1,453.31,337.8ZM260.21,55.2a5.47,5.47,0,0,0-5.46,5.46V332.09a5.47,5.47,0,0,0,5.46,5.46h193.1a5.47,5.47,0,0,0,5.46-5.46V60.66a5.47,5.47,0,0,0-5.46-5.46Z" style="fill:#ebebeb"></path><polygon points="57.43 376.57 436.82 376.57 436.82 241.16 449.52 241.16 449.52 236.91 441.84 236.91 423.24 208.93 412.62 208.93 412.62 208.89 353.3 208.89 336.38 174.68 250.06 174.68 250.06 161.96 260.37 161.96 260.37 156.87 249.36 156.87 233.25 126.83 190.41 126.83 169.55 156.87 158.87 156.87 158.87 161.96 169.18 161.96 169.18 208.89 138.61 208.89 125.19 237.8 101.25 237.8 101.25 227.66 82.25 227.66 82.25 237.8 77.61 237.8 77.61 184.59 75.31 184.59 75.31 237.8 64.95 237.8 50.26 271.95 44.38 271.95 44.38 277.19 57.43 277.19 57.43 376.57" style="fill:#f0f0f0"></polygon><circle cx="117.46" cy="105.02" r="27.79" style="fill:#fafafa"></circle><path d="M103.05,104.71a4.84,4.84,0,0,0-6.22-4.63A10.21,10.21,0,0,0,86.71,88.37a10.62,10.62,0,0,0-1.89.18,8.93,8.93,0,0,0-16.57,4.52H68.1a8.24,8.24,0,1,0,0,16.48H98.35A4.82,4.82,0,0,0,103.05,104.71Z" style="fill:#f5f5f5"></path><path d="M351,127.09a4.83,4.83,0,0,0-4.83-4.83,4.92,4.92,0,0,0-1.39.2,10.21,10.21,0,0,0-10.12-11.71,9.74,9.74,0,0,0-1.88.18,8.94,8.94,0,0,0-16.58,4.51H316a8.24,8.24,0,0,0,0,16.48h30.25A4.82,4.82,0,0,0,351,127.09Z" style="fill:#f5f5f5"></path><path d="M214.72,95.84a4.83,4.83,0,0,1,6.21-4.63A10.28,10.28,0,0,1,231.05,79.5a9.77,9.77,0,0,1,1.89.18,8.94,8.94,0,0,1,16.58,4.52h.15a8.24,8.24,0,0,1,0,16.48H219.41A4.82,4.82,0,0,1,214.72,95.84Z" style="fill:#f5f5f5"></path><path d="M438.46,190.06a4.83,4.83,0,0,0-4.83-4.83,4.59,4.59,0,0,0-1.39.21,10.45,10.45,0,0,0,.11-1.49,10.23,10.23,0,0,0-10.23-10.23,10.6,10.6,0,0,0-1.88.18,8.94,8.94,0,0,0-16.58,4.52h-.15a8.24,8.24,0,0,0,0,16.48h30.26A4.82,4.82,0,0,0,438.46,190.06Z" style="fill:#f5f5f5"></path><path d="M163.65,119.18a3,3,0,0,0-3-3,2.71,2.71,0,0,0-.86.13,7.14,7.14,0,0,0,.07-.93A6.36,6.36,0,0,0,153.5,109a6.45,6.45,0,0,0-1.17.11A5.56,5.56,0,0,0,142,111.94h-.09a5.13,5.13,0,1,0,0,10.25h18.81A3,3,0,0,0,163.65,119.18Z" style="fill:#f5f5f5"></path><path d="M175.87,171.68a3,3,0,0,1,3-3,3.16,3.16,0,0,1,.87.13,5.62,5.62,0,0,1-.07-.92,6.36,6.36,0,0,1,6.36-6.36,6.45,6.45,0,0,1,1.17.11,5.56,5.56,0,0,1,10.31,2.81h.09a5.13,5.13,0,0,1,0,10.25H178.79A3,3,0,0,1,175.87,171.68Z" style="fill:#f5f5f5"></path><path d="M401,105.53a3,3,0,0,1,3.86-2.88,7,7,0,0,1-.06-.92,6.35,6.35,0,0,1,6.35-6.36,6.56,6.56,0,0,1,1.18.11,5.55,5.55,0,0,1,10.3,2.81h.1a5.13,5.13,0,0,1,0,10.25H404A3,3,0,0,1,401,105.53Z" style="fill:#f5f5f5"></path></g><g id="freepik--Shadow--inject-29"><ellipse id="freepik--path--inject-29" cx="250" cy="416.24" rx="193.89" ry="11.32" style="fill:#f5f5f5"></ellipse></g><g id="freepik--Road--inject-29"><path d="M46.55,338.24h406.9a4.94,4.94,0,0,1,4.94,4.94V382.1a0,0,0,0,1,0,0H41.61a0,0,0,0,1,0,0V343.18A4.94,4.94,0,0,1,46.55,338.24Z" style="fill:#e0e0e0"></path><polygon points="284.15 341.55 282.56 340 244.09 340 242.28 341.55 284.15 341.55" style="fill:#f0f0f0"></polygon><polygon points="241.35 342.34 237.2 345.9 288.64 345.9 284.97 342.34 241.35 342.34" style="fill:#f0f0f0"></polygon><polygon points="236.28 346.69 228.43 353.42 296.39 353.42 289.46 346.69 236.28 346.69" style="fill:#f0f0f0"></polygon><polygon points="298.43 355.4 226.12 355.4 212.72 366.87 310.25 366.87 298.43 355.4" style="fill:#f0f0f0"></polygon><polygon points="313.51 370.03 209.03 370.03 196.1 381.11 324.93 381.11 313.51 370.03" style="fill:#f0f0f0"></polygon></g><g id="freepik--Line--inject-29"><path d="M273.37,382.37h-1.15v-7.5h1.15Zm0-12.19h-1.15v-7.5h1.15Zm0-12.19h-1.15v-7.5h1.15Zm0-12.18h-1.15V338.3h1.15Zm0-12.19h-1.15v-7.51h1.15Zm0-12.19h-1.15v-7.5h1.15Zm0-12.19h-1.15v-7.5h1.15Zm0-12.19h-1.15v-7.5h1.15Zm0-12.19h-1.15v-7.5h1.15Zm0-12.19h-1.15v-7.5h1.15Zm0-12.19h-1.15V253h1.15Zm0-12.19h-1.15v-7.5h1.15Zm0-12.19h-1.15v-7.5h1.15Zm0-12.19h-1.15v-7.5h1.15Zm0-12.19h-1.15v-7.5h1.15Zm0-12.19h-1.15V192h1.15Zm0-12.19h-1.15v-7.5h1.15Zm0-12.19h-1.15v-7.5h1.15Zm0-12.19h-1.15v-7.5h1.15Zm0-12.19h-1.15v-7.5h1.15Zm0-12.18h-1.15v-7.51h1.15Zm0-12.19h-1.15v-7.51h1.15Zm0-12.19h-1.15v-7.5h1.15Zm0-12.19h-1.15v-7.5h1.15Z" style="fill:#263238"></path><g style="opacity:0.7000000000000001;isolation:isolate"><path d="M273.37,382.37h-1.15v-7.5h1.15Zm0-12.19h-1.15v-7.5h1.15Zm0-12.19h-1.15v-7.5h1.15Zm0-12.18h-1.15V338.3h1.15Zm0-12.19h-1.15v-7.51h1.15Zm0-12.19h-1.15v-7.5h1.15Zm0-12.19h-1.15v-7.5h1.15Zm0-12.19h-1.15v-7.5h1.15Zm0-12.19h-1.15v-7.5h1.15Zm0-12.19h-1.15v-7.5h1.15Zm0-12.19h-1.15V253h1.15Zm0-12.19h-1.15v-7.5h1.15Zm0-12.19h-1.15v-7.5h1.15Zm0-12.19h-1.15v-7.5h1.15Zm0-12.19h-1.15v-7.5h1.15Zm0-12.19h-1.15V192h1.15Zm0-12.19h-1.15v-7.5h1.15Zm0-12.19h-1.15v-7.5h1.15Zm0-12.19h-1.15v-7.5h1.15Zm0-12.19h-1.15v-7.5h1.15Zm0-12.18h-1.15v-7.51h1.15Zm0-12.19h-1.15v-7.51h1.15Zm0-12.19h-1.15v-7.5h1.15Zm0-12.19h-1.15v-7.5h1.15Z" style="fill:#fff"></path></g></g><g id="freepik--house-1--inject-29"><rect x="149.1" y="256.34" width="120.46" height="82.53" style="fill:#263238"></rect><rect x="149.1" y="256.34" width="120.46" height="82.53" style="fill:#fff;opacity:0.8;isolation:isolate"></rect><rect x="149.1" y="256.34" width="92.74" height="82.53" style="opacity:0.05"></rect><rect x="250.49" y="277.81" width="19.07" height="61.06" style="fill:#263238"></rect><rect x="250.49" y="277.81" width="19.07" height="61.06" style="fill:#fff;opacity:0.1;isolation:isolate"></rect><rect x="199.93" y="296.57" width="10.63" height="17.5" style="fill:#263238"></rect><rect x="199.93" y="277.81" width="10.63" height="17.5" style="fill:#263238"></rect><rect x="211.82" y="296.57" width="10.92" height="17.5" style="fill:#263238"></rect><rect x="211.82" y="277.81" width="10.92" height="17.5" style="fill:#263238"></rect><rect x="199.93" y="296.57" width="10.63" height="17.5" style="fill:#fff;opacity:0.5;isolation:isolate"></rect><rect x="199.93" y="277.81" width="10.63" height="17.5" style="fill:#fff;opacity:0.5;isolation:isolate"></rect><rect x="211.82" y="296.57" width="10.92" height="17.5" style="fill:#fff;opacity:0.5;isolation:isolate"></rect><rect x="211.82" y="277.81" width="10.92" height="17.5" style="fill:#fff;opacity:0.5;isolation:isolate"></rect><polygon points="199.94 277.81 199.94 286.47 202.25 277.81 199.94 277.81" style="fill:#fff;opacity:0.30000000000000004"></polygon><polygon points="199.94 296.57 199.94 303.22 201.71 296.57 199.94 296.57" style="fill:#fff;opacity:0.30000000000000004"></polygon><polygon points="206.74 277.81 202.06 295.31 200.22 295.31 204.9 277.81 206.74 277.81" style="fill:#fff;opacity:0.30000000000000004"></polygon><polygon points="222.74 296.57 220.23 296.57 215.55 314.08 221.1 314.08 222.74 307.99 222.74 296.57" style="fill:#fff;opacity:0.30000000000000004"></polygon><polygon points="222.74 287.24 220.57 295.31 222.74 295.31 222.74 287.24" style="fill:#fff;opacity:0.30000000000000004"></polygon><rect x="162.75" y="296.57" width="10.63" height="17.5" style="fill:#263238"></rect><rect x="162.75" y="277.81" width="10.63" height="17.5" style="fill:#263238"></rect><rect x="174.64" y="296.57" width="10.92" height="17.5" style="fill:#263238"></rect><rect x="174.64" y="277.81" width="10.92" height="17.5" style="fill:#263238"></rect><rect x="162.75" y="296.57" width="10.63" height="17.5" style="fill:#fff;opacity:0.5;isolation:isolate"></rect><rect x="162.75" y="277.81" width="10.63" height="17.5" style="fill:#fff;opacity:0.5;isolation:isolate"></rect><rect x="174.64" y="296.57" width="10.92" height="17.5" style="fill:#fff;opacity:0.5;isolation:isolate"></rect><rect x="174.64" y="277.81" width="10.92" height="17.5" style="fill:#fff;opacity:0.5;isolation:isolate"></rect><polygon points="162.75 277.81 162.75 286.47 165.07 277.81 162.75 277.81" style="fill:#fff;opacity:0.30000000000000004"></polygon><polygon points="162.75 296.57 162.75 303.22 164.53 296.57 162.75 296.57" style="fill:#fff;opacity:0.30000000000000004"></polygon><polygon points="169.56 277.81 164.88 295.31 163.03 295.31 167.72 277.81 169.56 277.81" style="fill:#fff;opacity:0.30000000000000004"></polygon><polygon points="185.55 296.57 183.05 296.57 178.36 314.08 183.92 314.08 185.55 307.99 185.55 296.57" style="fill:#fff;opacity:0.30000000000000004"></polygon><polygon points="185.55 287.24 183.39 295.31 185.55 295.31 185.55 287.24" style="fill:#fff;opacity:0.30000000000000004"></polygon><rect x="159.34" y="271.99" width="27.21" height="3.43" style="fill:#263238"></rect><rect x="183.12" y="271.99" width="3.43" height="3.43" style="fill:#fff;opacity:0.4;isolation:isolate"></rect><rect x="196.52" y="271.99" width="27.21" height="3.43" style="fill:#263238"></rect><rect x="220.3" y="271.99" width="3.43" height="3.43" style="fill:#fff;opacity:0.4;isolation:isolate"></rect><rect x="160.57" y="197.47" width="108.99" height="56.16" style="fill:#263238"></rect><rect x="160.57" y="197.47" width="108.99" height="56.16" style="fill:#fff;opacity:0.8;isolation:isolate"></rect><rect x="160.57" y="197.47" width="80.03" height="56.16" style="opacity:0.05"></rect><polygon points="269.56 178.42 269.56 197.47 153.95 197.47 158.55 193.86 178.22 178.42 269.56 178.42" style="fill:#263238"></polygon><polygon points="269.56 178.42 269.56 195.89 241.65 195.89 241.53 193.86 240.6 178.42 269.56 178.42" style="fill:#fff;opacity:0.4;isolation:isolate"></polygon><rect x="151.75" y="193.86" width="117.81" height="5.35" style="fill:#263238"></rect><rect x="151.75" y="193.86" width="117.81" height="5.35" style="fill:#fff;opacity:0.4;isolation:isolate"></rect><rect x="242.21" y="193.86" width="27.35" height="5.35" style="fill:#fff;opacity:0.4;isolation:isolate"></rect><rect x="206.66" y="231.24" width="10.63" height="17.5" style="fill:#263238"></rect><rect x="206.66" y="212.48" width="10.63" height="17.5" style="fill:#263238"></rect><rect x="218.54" y="231.24" width="10.92" height="17.5" style="fill:#263238"></rect><rect x="218.54" y="212.48" width="10.92" height="17.5" style="fill:#263238"></rect><rect x="206.66" y="231.24" width="10.63" height="17.5" style="fill:#fff;opacity:0.5;isolation:isolate"></rect><rect x="206.66" y="212.48" width="10.63" height="17.5" style="fill:#fff;opacity:0.5;isolation:isolate"></rect><rect x="218.54" y="231.24" width="10.92" height="17.5" style="fill:#fff;opacity:0.5;isolation:isolate"></rect><rect x="218.54" y="212.48" width="10.92" height="17.5" style="fill:#fff;opacity:0.5;isolation:isolate"></rect><polygon points="206.66 212.48 206.66 221.14 208.98 212.48 206.66 212.48" style="fill:#fff;opacity:0.30000000000000004"></polygon><polygon points="206.66 231.24 206.66 237.89 208.44 231.24 206.66 231.24" style="fill:#fff;opacity:0.30000000000000004"></polygon><polygon points="213.47 212.48 208.78 229.98 206.94 229.98 211.63 212.48 213.47 212.48" style="fill:#fff;opacity:0.30000000000000004"></polygon><polygon points="229.46 231.24 226.96 231.24 222.27 248.75 227.83 248.75 229.46 242.66 229.46 231.24" style="fill:#fff;opacity:0.30000000000000004"></polygon><polygon points="229.46 221.91 227.3 229.98 229.46 229.98 229.46 221.91" style="fill:#fff;opacity:0.30000000000000004"></polygon><rect x="169.48" y="231.24" width="10.63" height="17.5" style="fill:#263238"></rect><rect x="169.48" y="212.48" width="10.63" height="17.5" style="fill:#263238"></rect><rect x="181.36" y="231.24" width="10.92" height="17.5" style="fill:#263238"></rect><rect x="181.36" y="212.48" width="10.92" height="17.5" style="fill:#263238"></rect><rect x="169.48" y="231.24" width="10.63" height="17.5" style="fill:#fff;opacity:0.5;isolation:isolate"></rect><rect x="169.48" y="212.48" width="10.63" height="17.5" style="fill:#fff;opacity:0.5;isolation:isolate"></rect><rect x="181.36" y="231.24" width="10.92" height="17.5" style="fill:#fff;opacity:0.5;isolation:isolate"></rect><rect x="181.36" y="212.48" width="10.92" height="17.5" style="fill:#fff;opacity:0.5;isolation:isolate"></rect><polygon points="169.48 212.48 169.48 221.14 171.79 212.48 169.48 212.48" style="fill:#fff;opacity:0.30000000000000004"></polygon><polygon points="169.48 231.24 169.48 237.89 171.26 231.24 169.48 231.24" style="fill:#fff;opacity:0.30000000000000004"></polygon><polygon points="176.28 212.48 171.6 229.98 169.76 229.98 174.44 212.48 176.28 212.48" style="fill:#fff;opacity:0.30000000000000004"></polygon><polygon points="192.28 231.24 189.77 231.24 185.09 248.75 190.65 248.75 192.28 242.66 192.28 231.24" style="fill:#fff;opacity:0.30000000000000004"></polygon><polygon points="192.28 221.91 190.12 229.98 192.28 229.98 192.28 221.91" style="fill:#fff;opacity:0.30000000000000004"></polygon><rect x="166.06" y="206.66" width="27.21" height="3.43" style="fill:#263238"></rect><rect x="189.85" y="206.66" width="3.43" height="3.43" style="fill:#fff;opacity:0.4;isolation:isolate"></rect><rect x="203.25" y="206.66" width="27.21" height="3.43" style="fill:#263238"></rect><rect x="227.03" y="206.66" width="3.43" height="3.43" style="fill:#fff;opacity:0.4;isolation:isolate"></rect><rect x="250.35" y="231.24" width="10.63" height="17.5" style="fill:#263238"></rect><rect x="250.35" y="212.48" width="10.63" height="17.5" style="fill:#263238"></rect><rect x="262.23" y="231.24" width="7.33" height="17.51" style="fill:#263238"></rect><rect x="262.23" y="212.48" width="7.33" height="17.5" style="fill:#263238"></rect><rect x="250.35" y="231.24" width="10.63" height="17.5" style="fill:#fff;opacity:0.5;isolation:isolate"></rect><rect x="250.35" y="212.48" width="10.63" height="17.5" style="fill:#fff;opacity:0.5;isolation:isolate"></rect><rect x="262.23" y="231.24" width="7.33" height="17.51" style="fill:#fff;opacity:0.5;isolation:isolate"></rect><rect x="262.23" y="212.48" width="7.33" height="17.5" style="fill:#fff;opacity:0.5;isolation:isolate"></rect><polygon points="250.35 212.48 250.35 221.14 252.67 212.48 250.35 212.48" style="fill:#fff;opacity:0.30000000000000004"></polygon><polygon points="250.35 231.24 250.35 237.89 252.13 231.24 250.35 231.24" style="fill:#fff;opacity:0.30000000000000004"></polygon><polygon points="257.16 212.48 252.47 229.98 250.63 229.98 255.32 212.48 257.16 212.48" style="fill:#fff;opacity:0.30000000000000004"></polygon><polygon points="269.56 235.31 269.56 248.75 265.96 248.75 269.56 235.31" style="fill:#fff;opacity:0.30000000000000004"></polygon><rect x="248.8" y="206.66" width="20.76" height="3.43" style="fill:#263238"></rect><rect x="248.8" y="206.66" width="3.43" height="3.43" transform="translate(501.03 416.75) rotate(180)" style="fill:#fff;opacity:0.4;isolation:isolate"></rect><polygon points="269.56 253.71 269.56 264.49 136.29 264.49 140.88 261.06 150.73 253.71 269.56 253.71" style="fill:#263238"></polygon><polygon points="269.56 253.71 269.56 262.98 241.65 262.98 241.53 261.06 241.23 256.34 241.06 253.71 269.56 253.71" style="fill:#fff;opacity:0.4;isolation:isolate"></polygon><rect x="134.09" y="261.06" width="135.47" height="5.08" style="fill:#263238"></rect><rect x="134.09" y="261.06" width="135.47" height="5.08" style="fill:#fff;opacity:0.4;isolation:isolate"></rect><rect x="242.21" y="261.06" width="27.35" height="5.08" style="fill:#fff;opacity:0.4;isolation:isolate"></rect><polygon points="269.56 337 269.56 338.87 141.92 338.87 144.6 337 269.56 337" style="fill:#263238"></polygon><path d="M234.25,124H180.7a3.68,3.68,0,0,0-3.68,3.68v16.31a3.68,3.68,0,0,0,3.68,3.68h23.85l2.93,10,2.92-10h23.85a3.68,3.68,0,0,0,3.68-3.68V127.63A3.68,3.68,0,0,0,234.25,124Z" style="fill:#F0B400"></path><path d="M192.1,137c0,1.29-1,2-2.87,2h-3.57v-7.49H189c1.72,0,2.68.73,2.68,1.93a1.77,1.77,0,0,1-1,1.67A1.82,1.82,0,0,1,192.1,137Zm-5.37-4.6v2.4h2.19c1.09,0,1.71-.41,1.71-1.2s-.62-1.2-1.71-1.2Zm4.29,4.52c0-.87-.65-1.25-1.83-1.25h-2.46v2.49h2.46C190.37,138.13,191,137.75,191,136.89Z" style="fill:#fff"></path><path d="M199.19,138.06V139h-5.44v-7.49H199v.93h-4.22v2.3h3.76v.91h-3.76v2.41Z" style="fill:#fff"></path><path d="M202,132.44v2.61h3.75V136H202v3h-1.07v-7.49h5.28v.93Z" style="fill:#fff"></path><path d="M207,135.25a4,4,0,1,1,4,3.83A3.81,3.81,0,0,1,207,135.25Zm6.89,0a2.91,2.91,0,1,0-2.9,2.88A2.81,2.81,0,0,0,213.9,135.25Z" style="fill:#fff"></path><path d="M221.61,139,220,136.7l-.47,0h-1.85V139H216.6v-7.49h2.92c1.95,0,3.13,1,3.13,2.61a2.36,2.36,0,0,1-1.65,2.36l1.77,2.52Zm0-4.88c0-1.07-.72-1.68-2.09-1.68h-1.82v3.37h1.82C220.86,135.81,221.58,135.19,221.58,134.12Z" style="fill:#fff"></path><path d="M229.81,138.06V139h-5.43v-7.49h5.28v.93h-4.21v2.3h3.75v.91h-3.75v2.41Z" style="fill:#fff"></path></g><g id="freepik--house-2--inject-29"><rect x="414.85" y="183.75" width="2.82" height="75.44" style="fill:#F0B400"></rect><rect x="275.94" y="246.17" width="53.83" height="92.7" style="fill:#F0B400"></rect><rect x="275.94" y="246.17" width="53.83" height="92.7" style="fill:#fff;opacity:0.8;isolation:isolate"></rect><rect x="326.42" y="261.78" width="61.87" height="77.09" style="fill:#F0B400"></rect><rect x="326.43" y="261.77" width="61.87" height="77.09" style="fill:#fff;opacity:0.4;isolation:isolate"></rect><polygon points="388.3 261.77 388.3 291.55 352.53 306.9 352.53 338.87 326.43 338.87 326.43 261.77 388.3 261.77" style="opacity:0.1"></polygon><rect x="408.97" y="265.28" width="4.7" height="73.59" style="fill:#F0B400"></rect><rect x="398.04" y="265.28" width="4.7" height="73.59" style="fill:#F0B400"></rect><rect x="387.1" y="265.28" width="4.7" height="73.59" style="fill:#F0B400"></rect><rect x="376.17" y="265.28" width="4.7" height="73.59" style="fill:#F0B400"></rect><rect x="365.23" y="265.28" width="4.7" height="73.59" style="fill:#F0B400"></rect><path d="M354.18,236.83V239h7.76v2.1h-7.76v.57h7.76v2.16h-7.76v.56h7.76v2.16h-7.76v.56h7.76v2.16h-7.76v.57h7.76V252h-7.76v.56h7.76v2.16h-7.76v.57h7.76v2.16h-7.76V258h7.76v1.19h1.64V258h21.88v1.19h1.64V258H409v1.19h1.65V239h3.06v-2.16Zm9.4,2.16h21.88v2.1H363.58Zm0,2.67h21.88v2.16H363.58Zm0,2.72h21.88v2.16H363.58Zm0,2.72h21.88v2.16H363.58Zm0,2.73h21.88V252H363.58Zm0,2.72h21.88v2.16H363.58Zm0,4.89v-2.16h21.88v2.16ZM387.1,239H409v2.1H387.1Zm0,2.67H409v2.16H387.1Zm0,2.72H409v2.16H387.1Zm0,2.72H409v2.16H387.1Zm0,2.73H409V252H387.1Zm0,2.72H409v2.16H387.1Zm0,4.89v-2.16H409v2.16Z" style="fill:#F0B400"></path><g style="opacity:0.2;isolation:isolate"><path d="M354.18,236.83V239h7.76v2.1h-7.76v.57h7.76v2.16h-7.76v.56h7.76v2.16h-7.76v.56h7.76v2.16h-7.76v.57h7.76V252h-7.76v.56h7.76v2.16h-7.76v.57h7.76v2.16h-7.76V258h7.76v1.19h1.64V258h21.88v1.19h1.64V258H409v1.19h1.65V239h3.06v-2.16Zm9.4,2.16h21.88v2.1H363.58Zm0,2.67h21.88v2.16H363.58Zm0,2.72h21.88v2.16H363.58Zm0,2.72h21.88v2.16H363.58Zm0,2.73h21.88V252H363.58Zm0,2.72h21.88v2.16H363.58Zm0,4.89v-2.16h21.88v2.16ZM387.1,239H409v2.1H387.1Zm0,2.67H409v2.16H387.1Zm0,2.72H409v2.16H387.1Zm0,2.72H409v2.16H387.1Zm0,2.73H409V252H387.1Zm0,2.72H409v2.16H387.1Zm0,4.89v-2.16H409v2.16Z"></path></g><rect x="275.94" y="183.75" width="80.59" height="74.86" style="fill:#F0B400"></rect><rect x="275.94" y="183.75" width="80.59" height="74.86" style="fill:#fff;opacity:0.8;isolation:isolate"></rect><rect x="275.94" y="194.4" width="73.43" height="64.21" style="fill:#F0B400"></rect><path d="M275.94,194.4v4.91h68.58v55.13H275.94v4.17h73.43V194.4Z" style="fill:#fff;opacity:0.1;isolation:isolate"></path><rect x="275.94" y="199.31" width="63.42" height="54.38" style="fill:#F0B400"></rect><rect x="275.94" y="199.31" width="63.42" height="54.38" style="fill:#fff;opacity:0.5;isolation:isolate"></rect><polygon points="339.36 199.31 339.36 229.31 332.83 253.69 320.31 253.69 334.87 199.31 339.36 199.31" style="fill:#fff;opacity:0.30000000000000004"></polygon><polygon points="331.33 199.31 316.77 253.69 314.95 253.69 329.51 199.31 331.33 199.31" style="fill:#fff;opacity:0.30000000000000004"></polygon><polygon points="331.33 307.83 331.33 277.81 337.71 277.81 337.71 272.58 290.58 272.58 290.58 313.15 337.71 313.15 337.71 307.83 331.33 307.83" style="fill:#F0B400"></polygon><rect x="300.12" y="277.81" width="32.57" height="30.03"></rect><rect x="300.12" y="277.81" width="32.57" height="30.03" style="fill:#F0B400"></rect><rect x="300.12" y="277.81" width="32.57" height="30.03" style="fill:#fff;opacity:0.5;isolation:isolate"></rect><polygon points="322.26 277.81 314.23 307.83 301.71 307.83 309.74 277.81 322.26 277.81" style="fill:#fff;opacity:0.30000000000000004"></polygon><polygon points="329.7 277.81 321.67 307.83 318.06 307.83 326.1 277.81 329.7 277.81" style="fill:#fff;opacity:0.30000000000000004"></polygon><rect x="290.58" y="272.58" width="4.45" height="40.57" style="opacity:0.1"></rect><rect x="276.69" y="265.35" width="11.76" height="73.52" style="fill:#F0B400"></rect><rect x="276.69" y="265.35" width="11.76" height="73.52" style="fill:#fff;opacity:0.30000000000000004;isolation:isolate"></rect><rect x="282.57" y="265.35" width="5.88" height="73.52" style="fill:#fff;opacity:0.2;isolation:isolate"></rect><rect x="365.36" y="265.35" width="11.76" height="73.52" style="fill:#F0B400"></rect><rect x="365.36" y="265.35" width="11.76" height="73.52" style="fill:#fff;opacity:0.30000000000000004;isolation:isolate"></rect><rect x="371.24" y="265.35" width="5.88" height="73.52" style="fill:#fff;opacity:0.2;isolation:isolate"></rect><rect x="275.94" y="258.61" width="148.14" height="7.63" style="fill:#F0B400"></rect><rect x="275.94" y="258.61" width="148.14" height="7.63" style="fill:#fff;opacity:0.30000000000000004;isolation:isolate"></rect><rect x="282.57" y="258.61" width="94.55" height="7.63" style="fill:#fff;opacity:0.2;isolation:isolate"></rect><rect x="275.94" y="178.35" width="144.57" height="7.63" style="fill:#F0B400"></rect><rect x="275.94" y="178.35" width="144.57" height="7.63" style="fill:#fff;opacity:0.30000000000000004;isolation:isolate"></rect><rect x="282.57" y="178.35" width="137.94" height="7.63" style="fill:#fff;opacity:0.2;isolation:isolate"></rect><polygon points="431.68 338.87 275.94 338.87 275.94 337 429 337 431.68 338.87" style="fill:#F0B400"></polygon><path d="M375,124H321.49a3.68,3.68,0,0,0-3.68,3.68v16.31a3.68,3.68,0,0,0,3.68,3.68h23.85l2.93,10,2.92-10H375a3.68,3.68,0,0,0,3.68-3.68V127.63A3.68,3.68,0,0,0,375,124Z" style="fill:#F0B400"></path><path d="M336.22,137.12h-4l-.83,1.88h-1.1l3.39-7.49h1.06l3.4,7.49H337Zm-.38-.85-1.61-3.67-1.62,3.67Z" style="fill:#fff"></path><path d="M340.34,132.44v2.61h3.76V136h-3.76v3h-1.07v-7.49h5.29v.93Z" style="fill:#fff"></path><path d="M347.6,132.44H345v-.93h6.19v.93h-2.57V139H347.6Z" style="fill:#fff"></path><path d="M357.83,138.06V139h-5.44v-7.49h5.29v.93h-4.22v2.3h3.76v.91h-3.76v2.41Z" style="fill:#fff"></path><path d="M364.56,139,363,136.7l-.47,0h-1.85V139h-1.07v-7.49h2.92c1.94,0,3.12,1,3.12,2.61a2.36,2.36,0,0,1-1.65,2.36l1.78,2.52Zm0-4.88c0-1.07-.72-1.68-2.08-1.68h-1.82v3.37h1.82C363.81,135.81,364.53,135.19,364.53,134.12Z" style="fill:#fff"></path></g><g id="freepik--plant-1--inject-29"><path d="M88,327s-5.13-4.28-9.52,0-5.25,30.76-5.25,30.76" style="fill:none;stroke:#F0B400;stroke-miterlimit:10"></path><path d="M72.86,362.84s3-31.09-8.35-44.15" style="fill:none;stroke:#F0B400;stroke-miterlimit:10"></path><path d="M74,359.56s-2.33-35.39,6.21-43.24" style="fill:none;stroke:#F0B400;stroke-miterlimit:10"></path><path d="M72.86,359.56s-.19-23.38-6.54-27-9.58,8.22-9.58,8.22" style="fill:none;stroke:#F0B400;stroke-miterlimit:10"></path><path d="M75.37,359.56s-1-17.95,3.88-24.37,10.09,2.75,10.09,2.75" style="fill:none;stroke:#F0B400;stroke-miterlimit:10"></path><path d="M73.66,362s3.18-42-2.08-49.1" style="fill:none;stroke:#F0B400;stroke-miterlimit:10"></path><path d="M60.89,336s3.16,1.16,2.22,3.92-10.94,7.28-10.94,7.28-4.19-3.84-.34-10.08S60.8,334,60.89,336Z" style="fill:#F0B400"></path><path d="M60.89,336s3.16,1.16,2.22,3.92-10.94,7.28-10.94,7.28-4.19-3.84-.34-10.08S60.8,334,60.89,336Z" style="fill:#fff;opacity:0.2;isolation:isolate"></path><path d="M74.64,330.71s-3.37-.14-3.56,2.76,7.3,10.93,7.3,10.93,5.34-1.93,4.2-9.17S75.48,328.92,74.64,330.71Z" style="fill:#F0B400"></path><path d="M74.64,330.71s-3.37-.14-3.56,2.76,7.3,10.93,7.3,10.93,5.34-1.93,4.2-9.17S75.48,328.92,74.64,330.71Z" style="fill:#fff;opacity:0.2;isolation:isolate"></path><path d="M77.49,316.81s-2.24-.24-2.06-1.61,8.73-4.89,13.77.81c0,0-3.23,5.54-7.9,5.62S77.49,316.81,77.49,316.81Z" style="fill:#F0B400"></path><path d="M77.49,316.81s-2.24-.24-2.06-1.61,8.73-4.89,13.77.81c0,0-3.23,5.54-7.9,5.62S77.49,316.81,77.49,316.81Z" style="fill:#fff;opacity:0.2;isolation:isolate"></path><path d="M73.31,313.49s2,1,2.6-.27-4.82-8.77-12.11-6.61c0,0-.2,6.42,3.73,8.95S73.31,313.49,73.31,313.49Z" style="fill:#F0B400"></path><path d="M73.31,313.49s2,1,2.6-.27-4.82-8.77-12.11-6.61c0,0-.2,6.42,3.73,8.95S73.31,313.49,73.31,313.49Z" style="fill:#fff;opacity:0.2;isolation:isolate"></path><path d="M83.94,334.84s-1.55-1.25.12-1.86,9.88-.44,10,7.69c0,0-9.56,1.59-10.74-1.51S83.94,334.84,83.94,334.84Z" style="fill:#F0B400"></path><path d="M83.94,334.84s-1.55-1.25.12-1.86,9.88-.44,10,7.69c0,0-9.56,1.59-10.74-1.51S83.94,334.84,83.94,334.84Z" style="fill:#fff;opacity:0.2;isolation:isolate"></path><path d="M64.45,316.61s1.55-1.25-.12-1.87-9.88-.43-10,7.7c0,0,9.56,1.59,10.74-1.51S64.45,316.61,64.45,316.61Z" style="fill:#F0B400"></path><path d="M64.45,316.61s1.55-1.25-.12-1.87-9.88-.43-10,7.7c0,0,9.56,1.59,10.74-1.51S64.45,316.61,64.45,316.61Z" style="fill:#fff;opacity:0.2;isolation:isolate"></path><path d="M69.5,323.16s.14-1.53-1.09-.93-5.51,5.21-1.07,9.59c0,0,6-4.42,4.89-6.72S69.5,323.16,69.5,323.16Z" style="fill:#F0B400"></path><path d="M69.5,323.16s.14-1.53-1.09-.93-5.51,5.21-1.07,9.59c0,0,6-4.42,4.89-6.72S69.5,323.16,69.5,323.16Z" style="fill:#fff;opacity:0.2;isolation:isolate"></path><path d="M85.33,325.32s-.93-1.21.43-1.36,7.44,1.47,6,7.54c0,0-7.41-.55-7.73-3.08S85.33,325.32,85.33,325.32Z" style="fill:#F0B400"></path><path d="M85.33,325.32s-.93-1.21.43-1.36,7.44,1.47,6,7.54c0,0-7.41-.55-7.73-3.08S85.33,325.32,85.33,325.32Z" style="fill:#fff;opacity:0.2;isolation:isolate"></path><polygon points="60.3 382.1 85.72 382.1 88.46 354.27 57.56 354.27 60.3 382.1" style="fill:#F0B400"></polygon><polygon points="60.3 382.1 85.72 382.1 88.46 354.27 57.56 354.27 60.3 382.1" style="fill:#fff;opacity:0.5;isolation:isolate"></polygon><rect x="56.2" y="351.2" width="33.62" height="6.14" transform="translate(146.02 708.54) rotate(180)" style="fill:#F0B400"></rect><rect x="56.2" y="351.2" width="33.62" height="6.14" transform="translate(146.02 708.54) rotate(180)" style="fill:#fff;opacity:0.2;isolation:isolate"></rect></g><g id="freepik--plant-2--inject-29"><path d="M429.2,358.89s4.56-10-.65-19.78S421.82,327,425.15,325s4.85,7.85,4.85,7.85a22.15,22.15,0,0,0,.48-13.89c-2.31-7.1-3.76-18.67-.6-19.91s.6,14.43,3.34,19.77a45.79,45.79,0,0,0,2.69-11.65c.38-5.7-.22-14.81,2.28-17.15s4.09-.72,1.64,11.87a131.68,131.68,0,0,0-2.43,22.82s5.41-16.51,9.05-17,3.63,4.86.52,9.5-9.12,12.95-10.1,17.23c0,0,5.95-12.43,11.29-8.62s-4.65,11.31-9.11,14-7.55,19.71-7.55,19.71Z" style="fill:#F0B400"></path><path d="M429.2,358.89s4.56-10-.65-19.78S421.82,327,425.15,325s4.85,7.85,4.85,7.85a22.15,22.15,0,0,0,.48-13.89c-2.31-7.1-3.76-18.67-.6-19.91s.6,14.43,3.34,19.77a45.79,45.79,0,0,0,2.69-11.65c.38-5.7-.22-14.81,2.28-17.15s4.09-.72,1.64,11.87a131.68,131.68,0,0,0-2.43,22.82s5.41-16.51,9.05-17,3.63,4.86.52,9.5-9.12,12.95-10.1,17.23c0,0,5.95-12.43,11.29-8.62s-4.65,11.31-9.11,14-7.55,19.71-7.55,19.71Z" style="fill:#fff;opacity:0.6000000000000001;isolation:isolate"></path><path d="M432.8,363s-4.44-10,.89-19.77,6.87-12,3.57-14.09-4.94,7.79-4.94,7.79A22.19,22.19,0,0,1,432,323c2.4-7.07,4-18.61.84-19.9s-.78,14.42-3.58,19.72a46.1,46.1,0,0,1-2.54-11.69c-.31-5.71.39-14.81-2.08-17.18s-4.09-.79-1.78,11.84A132,132,0,0,1,425,328.65s-5.22-16.6-8.85-17.13-3.69,4.81-.63,9.49,8.95,13.09,9.89,17.38c0,0-5.8-12.52-11.19-8.79s4.51,11.39,8.94,14.17,7.32,19.82,7.32,19.82Z" style="fill:#F0B400"></path><path d="M432.8,363s-4.44-10,.89-19.77,6.87-12,3.57-14.09-4.94,7.79-4.94,7.79A22.19,22.19,0,0,1,432,323c2.4-7.07,4-18.61.84-19.9s-.78,14.42-3.58,19.72a46.1,46.1,0,0,1-2.54-11.69c-.31-5.71.39-14.81-2.08-17.18s-4.09-.79-1.78,11.84A132,132,0,0,1,425,328.65s-5.22-16.6-8.85-17.13-3.69,4.81-.63,9.49,8.95,13.09,9.89,17.38c0,0-5.8-12.52-11.19-8.79s4.51,11.39,8.94,14.17,7.32,19.82,7.32,19.82Z" style="fill:#fff;opacity:0.7000000000000001;isolation:isolate"></path><polygon points="412.3 355.82 449.02 355.82 446.05 382.1 415.27 382.1 412.3 355.82" style="fill:#F0B400"></polygon></g><g id="freepik--Bubble--inject-29"><path d="M105.42,117.15c0-6.18-6.2-11.2-13.86-11.2s-13.86,5-13.86,11.2c0,5.43,4.77,9.95,11.11,11a15.15,15.15,0,0,0,6.84,7s-2.48-1.91-2.25-6.91C100.18,127.52,105.42,122.83,105.42,117.15Z" style="fill:#F0B400"></path><path d="M105.42,117.15c0-6.18-6.2-11.2-13.86-11.2s-13.86,5-13.86,11.2c0,5.43,4.77,9.95,11.11,11a15.15,15.15,0,0,0,6.84,7s-2.48-1.91-2.25-6.91C100.18,127.52,105.42,122.83,105.42,117.15Z" style="fill:#fff;opacity:0.8;isolation:isolate"></path><path d="M86,112.34c1.79-2.21,4.49-.92,5.71,1.14,1.7-1.68,4.64-2.24,5.81.36,2,4.37-3.65,7.45-6.27,8.6l-.74.33c-.18-.14-.39-.3-.64-.51C87.62,120.48,83,116.07,86,112.34Z" style="fill:#F0B400"></path></g><g id="freepik--Character--inject-29"><path d="M162.3,204c-2.12,5.34-9.34,6.46-15.18,4.06s-13.88-16.59-13.88-16.59l8.13-14.68Z" style="fill:#F0B400"></path><path d="M162.3,204c-2.12,5.34-9.34,6.46-15.18,4.06s-13.88-16.59-13.88-16.59l8.13-14.68Z" style="opacity:0.2"></path><path d="M107.33,137.05a14.47,14.47,0,0,1,12.82-6.67c8.78.4,11.88,1.19,13.09,8.91s1.81,8.77,4.58,10.42-3.88,5.28-2.73,8.61,4.71,3.12,4.51,6.19-4.1,3-4.51,5.39,1.62,6.57,0,9.93S101,194.31,96.68,186.08s2.57-12.27,3.36-16.18-1.46-3.73-1.62-8.37,3-5,3.33-7.61-2.89-5-1.9-7.94S104.48,137.05,107.33,137.05Z" style="fill:#263238"></path><polygon points="86.69 396.86 82.59 391.48 89.55 384.77 95.88 378.67 101.83 384.23 93.82 390.91 86.69 396.86" style="fill:#eec1bb"></polygon><path d="M82.35,389.84c.6-.44,5.7,7.2,5.7,7.2s-1.14,8,1.16,13.09S87,414.82,83.33,410l-9.19-12C71.5,394.48,76.09,394.39,82.35,389.84Z" style="fill:#263238"></path><path d="M89.78,402.8c-1.16-.27-1.91-3.57-2-4.23a.17.17,0,0,1,0-.1h0a.19.19,0,0,1,0-.07h0s0,0,0-.06h0a.14.14,0,0,1,.08,0c.11,0,2.26-.72,3.42,0a1.39,1.39,0,0,1,.7,1c.09.45,0,.77-.25.94s-1.18.05-2-.3a3.72,3.72,0,0,1,1.07,1.77,1.07,1.07,0,0,1-.94,1.2Zm.11-.47s.19.05.42-.25a.54.54,0,0,0,.09-.4c-.1-.76-1.24-1.86-2-2.54C88.72,400.56,89.34,402.2,89.89,402.33Zm-1.34-3.72c1.24.77,2.6,1.38,2.94,1.14.11-.07.07-.31,0-.44a.9.9,0,0,0-.46-.64,2.15,2.15,0,0,0-1.1-.24A7.13,7.13,0,0,0,88.55,398.61Z" style="fill:#F0B400"></path><polygon points="93.82 390.91 89.55 384.77 95.88 378.67 101.83 384.23 93.82 390.91" style="opacity:0.2;isolation:isolate"></polygon><polygon points="127.82 405.37 121.06 405.37 119.95 395.95 118.94 387.31 126.97 386 127.42 396.25 127.82 405.37" style="fill:#eec1bb"></polygon><path d="M119.61,404.93c0-.74,9.18-.16,9.18-.16s5.63,5.73,11.11,7,2.42,4.58-3.7,4.58H121.06C116.71,416.37,119.43,412.66,119.61,404.93Z" style="fill:#263238"></path><path d="M129.81,406l-.08-.05h0l0-.07h0s0-.05,0-.08h0a.36.36,0,0,1,0-.1c0-.1.81-2.23,2-2.74a1.45,1.45,0,0,1,1.19,0c.41.2.62.46.6.77,0,.48-.68,1-1.43,1.36a3.81,3.81,0,0,1,2.06.23,1,1,0,0,1,.49.62.9.9,0,0,1-.22,1,1.32,1.32,0,0,1-.81.22A11.46,11.46,0,0,1,129.81,406Zm.84-.15c1.35.57,3,1.08,3.46.72,0,0,.15-.12.06-.48a.48.48,0,0,0-.26-.32,2.24,2.24,0,0,0-1.08-.2A10.83,10.83,0,0,0,130.65,405.8Zm1.27-2.44a3.93,3.93,0,0,0-1.57,2c1.35-.51,2.66-1.22,2.69-1.64,0-.12-.2-.24-.33-.3a.92.92,0,0,0-.42-.1A.83.83,0,0,0,131.92,403.36Z" style="fill:#F0B400"></path><polygon points="127.42 396.46 119.95 396.13 118.94 387.4 126.97 386.05 127.42 396.46" style="opacity:0.2;isolation:isolate"></polygon><path d="M144.71,242.63s16,47.24,19.13,68S100,386.92,100,386.92l-7.26-7.73s48.83-54.3,48.83-63.64-16.61-52-16.61-52S123,246.35,144.71,242.63Z" style="fill:#263238"></path><path d="M144.71,242.63s16,47.24,19.13,68S100,386.92,100,386.92l-7.26-7.73s48.83-54.3,48.83-63.64-16.61-52-16.61-52S123,246.35,144.71,242.63Z" style="fill:#fff;opacity:0.2;isolation:isolate"></path><g style="clip-path:url(#freepik--clip-path--inject-29)"><path d="M131.1,332.79l-.86,28.28c-7.26,6.67-11.53,10.43-17,15-.86-3.72-3-11.49-2.54-18.2C117.9,350.11,124.21,341.07,131.1,332.79Z" style="opacity:0.2;isolation:isolate"></path></g><path d="M133.41,286.33c-4.14-11.33-8.11-21.14-8.11-21.14a17.57,17.57,0,0,1,.94-5.79,7.85,7.85,0,0,1,1.79-.79S133.87,268.24,133.41,286.33Z" style="opacity:0.2;isolation:isolate"></path><path d="M128.06,256.76l1.3,66.53v68.08H117.84c-27-129-8.5-161.34-8.5-161.34l.06,0c0-.05,0-.11.06-.15,4.35-9.67,32.86-2.54,32.86-2.54,2,8,3.36,24.27,3.36,24.27Z" style="fill:#263238"></path><path d="M128.06,256.76l1.3,66.53v68.08H117.84c-27-129-8.5-161.34-8.5-161.34l.06,0c0-.05,0-.11.06-.15,4.35-9.67,32.86-2.54,32.86-2.54,2,8,3.36,24.27,3.36,24.27Z" style="fill:#fff;opacity:0.2;isolation:isolate"></path><polygon points="116.39 389.73 130.55 387.66 129.36 393.32 117.68 394.89 116.39 389.73" style="fill:#F0B400"></polygon><polygon points="92.72 376.59 102.22 386.91 97.47 389.63 90.14 381.86 92.72 376.59" style="fill:#F0B400"></polygon><path d="M146.34,239a83.74,83.74,0,0,1-16.7,5c-17.9,3.51-26.51,2-26.51,2,2.52-6,3.73-14.52,3.69-24a123.21,123.21,0,0,0-1-14.71c0-.21,0-.42-.08-.63h0c-.47-3.6-1.09-7.23-1.85-10.82h0q-.81-3.83-1.86-7.55c-.49-1.77-1-3.5-1.58-5.21-.63-1.92-1.32-3.94-2.06-6.09a97.46,97.46,0,0,1,13.69-3.3,105.53,105.53,0,0,1,14.82-1.57c6.43-.05,13.8.68,13.8.68s1.05.25,1.71,7c.19,2-.17,7-.56,13.42C141,207,142.09,227.29,146.34,239Z" style="fill:#F0B400"></path><path d="M117.16,195.5c1.35-2.27,2.52-4.48,3.47-6.42h-1.7c-.62,1.27-1.34,2.67-2.14,4.13C116.92,193.93,117.05,194.7,117.16,195.5Z" style="fill:#fff;opacity:0.30000000000000004;isolation:isolate"></path><path d="M123.18,189l-1.43.07c-1.15,2.37-2.63,5.18-4.38,8,.06.57.11,1.16.15,1.74A84,84,0,0,0,123.18,189Z" style="fill:#fff;opacity:0.30000000000000004;isolation:isolate"></path><path d="M137.51,218.38c-.08-.67-.16-1.4-.24-2.18-1.09,1.91-2.32,3.9-3.66,5.83l1.76-.39C136.12,220.56,136.84,219.47,137.51,218.38Z" style="fill:#fff;opacity:0.30000000000000004;isolation:isolate"></path><path d="M137.08,214.49c-.08-.72-.15-1.45-.23-2.17a81.57,81.57,0,0,1-6.07,10.24l1.4-.25A75.32,75.32,0,0,0,137.08,214.49Z" style="fill:#fff;opacity:0.30000000000000004;isolation:isolate"></path><path d="M129.38,222.8a81.19,81.19,0,0,0,7.29-12.37c-.1-1.12-.19-2.18-.25-3.11a88.09,88.09,0,0,1-8.91,15.76Z" style="fill:#fff;opacity:0.30000000000000004;isolation:isolate"></path><path d="M117.63,202.42A78,78,0,0,0,126,188.73l-1.66.17a84.4,84.4,0,0,1-6.72,11.57C117.63,201.12,117.64,201.77,117.63,202.42Z" style="fill:#fff;opacity:0.30000000000000004;isolation:isolate"></path><path d="M136.84,221.27l1-.28c0-.28-.08-.64-.12-1C137.42,220.4,137.13,220.83,136.84,221.27Z" style="fill:#fff;opacity:0.30000000000000004;isolation:isolate"></path><path d="M126.11,223.29A87.6,87.6,0,0,0,136.33,205v-.37c0-.13.5-12.25-.85-18a40.83,40.83,0,0,1-8.31,2,77.18,77.18,0,0,1-9.64,15.54,20.62,20.62,0,0,1-.55,3.4,143.72,143.72,0,0,1,.73,16.76C119.36,224.12,122.57,223.78,126.11,223.29Z" style="fill:#fff;opacity:0.30000000000000004;isolation:isolate"></path><path d="M117.83,189.06c-.66,0-1.32-.06-2-.1.18.7.4,1.63.63,2.71C117,190.77,117.42,189.89,117.83,189.06Z" style="fill:#fff;opacity:0.30000000000000004;isolation:isolate"></path><path d="M124.41,171.28a11,11,0,0,1-.5-3.8,29.14,29.14,0,0,1,.39-4.12l-9.8-1.83s2.93,5.78,1,10.54a45.26,45.26,0,0,0-13,4.4,33.37,33.37,0,0,0,20.24,5.74c11.9-.6,16.15-8.8,16.15-8.8A47.61,47.61,0,0,0,124.41,171.28Z" style="fill:#eec1bb"></path><path d="M124.3,163.36a29.14,29.14,0,0,0-.39,4.12c-4.72-1.09-9.41-5.95-9.41-5.95Z" style="opacity:0.2;isolation:isolate"></path><path d="M124.41,171.28a11,11,0,0,1-.5-3.8,29.14,29.14,0,0,1,.39-4.12l-9.8-1.83s2.93,5.78,1,10.54a45.26,45.26,0,0,0-13,4.4,33.37,33.37,0,0,0,20.24,5.74c11.9-.6,16.15-8.8,16.15-8.8A47.61,47.61,0,0,0,124.41,171.28Z" style="opacity:0.1"></path><path d="M123.83,165.49a16.22,16.22,0,0,1-2.83-.23,11.74,11.74,0,0,1-8.09-5.53h0c-5.18-8.12-3-22.1,6.94-22.64,8.06-.44,10.89,3.73,11.94,12C133,158.38,131.54,165.38,123.83,165.49Z" style="fill:#eec1bb"></path><path d="M126.55,148.92a17,17,0,0,0,2.53,3.21,2.21,2.21,0,0,1-2.08,1Z" style="fill:#d4827d"></path><path d="M121.58,148.53c0,.66-.26,1.23-.7,1.26s-.84-.47-.9-1.13.27-1.23.71-1.26S121.53,147.87,121.58,148.53Z" style="fill:#263238"></path><path d="M120.51,147.44l1.39-.67S121.28,148,120.51,147.44Z" style="fill:#263238"></path><path d="M129.79,147.75c.05.66-.26,1.23-.7,1.26s-.84-.47-.9-1.14.27-1.22.71-1.25S129.74,147.09,129.79,147.75Z" style="fill:#263238"></path><path d="M128.72,146.66l1.39-.68S129.49,147.25,128.72,146.66Z" style="fill:#263238"></path><path d="M121.2,143a4.2,4.2,0,0,0-3.43,1.41" style="fill:none;stroke:#263238;stroke-linecap:round;stroke-linejoin:round;stroke-width:0.686238px"></path><path d="M127,142.31a3.74,3.74,0,0,1,3.24.48" style="fill:none;stroke:#263238;stroke-linecap:round;stroke-linejoin:round;stroke-width:0.686238px"></path><path d="M126,156.4a20.15,20.15,0,0,0-.78,2.85l-.53,0c-2.35-.11-3.41-.94-3.87-1.83a3,3,0,0,1-.31-1.41,3.16,3.16,0,0,1,.1-.81,11.3,11.3,0,0,0,4.59,1.17Z" style="fill:#263238"></path><path d="M125.2,156.35l-.25.83c-2.23-.11-3.78-.48-4.44-1.19a3.16,3.16,0,0,1,.1-.81A11.3,11.3,0,0,0,125.2,156.35Z" style="fill:#fff"></path><path d="M124.69,159.23c-2.35-.11-3.41-.94-3.87-1.83a7.63,7.63,0,0,1,2.59.64A2.87,2.87,0,0,1,124.69,159.23Z" style="fill:#de5753"></path><path d="M111.78,151.15s3.41-6.83,2.56-11.91c0,0,15.61-7.4,17.29,8.77,0,0,.77-14.49-13.1-14s-12.7,20.71-5.22,26.36C113.31,160.32,109.68,155.42,111.78,151.15Z" style="fill:#263238"></path><path d="M113.19,152.78a3.54,3.54,0,0,0-4-3c-2.48.41-3.39,5.61,2.89,6.5C113,156.38,113.46,155.48,113.19,152.78Z" style="fill:#eec1bb"></path><path d="M123.83,165.49a16.22,16.22,0,0,1-2.83-.23,11.74,11.74,0,0,1-8.09-5.53h0a8.72,8.72,0,0,1,4.37-3.06C118.49,156.53,121.75,162.51,123.83,165.49Z" style="opacity:0.1"></path><path d="M136.94,155.18s-4.13,9.82-3.4,11.4,4.28,10.49,4.28,10.49l4.52-2.38-3.53-7.21s4.09-6.51,3.53-7.16S138.48,154.49,136.94,155.18Z" style="fill:#eec1bb"></path><path d="M135.65,175.09l6.75-4s21.23,25.59,19.9,32.91c-.7,3.82-7,6.16-12,1.38C145.67,201,142.55,190.42,135.65,175.09Z" style="fill:#F0B400"></path><path d="M135.65,175.09l6.75-4s21.23,25.59,19.9,32.91c-.7,3.82-7,6.16-12,1.38C145.67,201,142.55,190.42,135.65,175.09Z" style="opacity:0.1"></path><path d="M112.29,160.32s3.94-3.18,5.14-3.11,5,10.65,5.83,11.55-1.88,9.44-1.88,9.44l-5.51.07,2-7.14S110.43,161.71,112.29,160.32Z" style="fill:#eec1bb"></path><path d="M106.82,222a123.21,123.21,0,0,0-1-14.71,21.64,21.64,0,0,1,10-6.93S116.08,216.82,106.82,222Z" style="opacity:0.2"></path><path d="M115.87,175.55l7,1.52s-6.81,30.26-11.52,34.48-9.39,3.71-12.91-2-4.74-31.27,0-32.65a60.73,60.73,0,0,1,4.71,9.1,66.39,66.39,0,0,1,3.2,8.73Z" style="fill:#F0B400"></path><path d="M122.85,177.06s-6.81,30.27-11.52,34.49-9.39,3.71-12.91-2-4.74-31.27,0-32.65a60.73,60.73,0,0,1,4.71,9.1c1,2.22,1.64,4,2.13,5.41.79,2.19,1.07,3.32,1.07,3.32l9.54-19.21Z" style="opacity:0.1"></path><path d="M106.33,194.76s-3.54,4.79-4.58,7.82c0,0-1.11-6.9,3.51-11.14C106.05,193.63,106.33,194.76,106.33,194.76Z" style="opacity:0.2"></path></g></svg>